<?xml version="1.0" standalone="no"?>
<!DOCTYPE svg PUBLIC "-//W3C//DTD SVG 20010904//EN"
 "http://www.w3.org/TR/2001/REC-SVG-20010904/DTD/svg10.dtd">
<svg version="1.0" xmlns="http://www.w3.org/2000/svg"
 width="1045.000000pt" height="1045.000000pt" viewBox="0 0 1045.000000 1045.000000"
 preserveAspectRatio="xMidYMid meet">
<metadata>
Created by potrace 1.11, written by Peter Selinger 2001-2013
</metadata>
<g transform="translate(0.000000,1045.000000) scale(0.100000,-0.100000)"
fill="#000000" stroke="none">
<path d="M5215 10430 c-4 -6 -10 -8 -14 -6 -4 3 -8 -1 -9 -9 -1 -8 -3 -22 -4
-30 -1 -8 -5 -12 -10 -9 -5 3 -6 11 -2 17 3 7 -4 1 -16 -13 -12 -14 -19 -20
-16 -14 3 7 0 14 -8 17 -18 7 -28 -3 -16 -17 5 -7 5 -17 -2 -26 -8 -12 -9 -11
-4 3 4 12 2 17 -6 14 -7 -2 -12 -11 -12 -19 1 -8 -5 -15 -12 -15 -8 0 -14 4
-14 9 0 4 -5 8 -11 8 -5 0 -7 -5 -3 -12 5 -7 2 -9 -9 -5 -11 4 -15 1 -12 -13
2 -11 -1 -23 -7 -26 -7 -4 -8 -2 -4 4 4 7 2 12 -4 12 -6 0 -9 4 -6 8 2 4 -4 8
-15 8 -17 0 -18 -2 -6 -11 15 -11 20 -48 5 -39 -5 3 -6 9 -4 13 3 4 -5 7 -17
6 -12 -2 -21 -8 -19 -15 2 -8 -4 -11 -17 -7 -18 4 -19 2 -10 -15 7 -13 7 -18
1 -14 -6 3 -13 2 -16 -3 -4 -5 -17 -8 -31 -6 -14 1 -25 -2 -25 -7 0 -5 -6 -6
-12 -2 -10 6 -10 5 0 -8 10 -13 9 -18 -5 -29 -16 -13 -17 -12 -5 3 12 15 11
17 -7 15 -11 0 -17 -5 -14 -11 4 -5 -1 -7 -9 -4 -18 7 -78 -26 -78 -44 0 -6 9
-2 20 10 25 26 26 26 33 8 4 -10 1 -13 -9 -9 -10 4 -13 0 -8 -13 4 -14 3 -15
-3 -6 -8 10 -12 10 -23 -3 -7 -8 -18 -15 -24 -15 -6 0 -5 4 3 9 9 6 10 11 3
15 -13 8 -31 -23 -25 -44 4 -13 3 -13 -6 0 -5 8 -8 17 -5 21 2 4 0 11 -6 14
-6 4 -9 2 -8 -3 2 -6 -1 -11 -7 -12 -5 -1 -17 -8 -26 -16 -9 -8 -20 -14 -25
-13 -21 4 -25 -2 -13 -18 12 -14 12 -16 0 -8 -11 6 -13 4 -8 -9 4 -10 3 -15
-3 -11 -14 9 -52 -4 -45 -15 3 -5 0 -12 -6 -16 -8 -4 -9 -3 -5 4 5 8 0 12 -13
12 -12 0 -21 -7 -21 -15 0 -9 -7 -18 -15 -21 -8 -4 -12 -11 -8 -17 4 -6 1 -7
-7 -2 -10 6 -9 11 5 22 11 7 15 13 9 13 -5 0 -18 -7 -28 -15 -10 -8 -23 -12
-29 -8 -6 3 -7 1 -3 -6 4 -6 12 -9 17 -6 15 10 10 -2 -8 -16 -11 -10 -14 -10
-9 -1 9 14 -3 16 -24 2 -10 -6 -11 -10 -2 -10 6 0 12 -4 12 -10 0 -12 -22 -9
-32 5 -5 6 -8 5 -8 -4 0 -11 -3 -11 -15 -1 -13 11 -14 10 -9 -4 4 -10 0 -18
-10 -22 -9 -3 -13 -11 -9 -18 3 -6 2 -8 -2 -3 -5 4 -19 0 -31 -8 -17 -11 -25
-12 -30 -3 -4 6 -3 8 4 4 6 -3 14 -1 18 5 4 8 3 9 -4 5 -7 -4 -12 -1 -12 6 0
11 -2 11 -9 0 -4 -7 -6 -25 -4 -40 3 -26 3 -26 -6 -4 -12 25 -24 30 -14 5 4
-11 3 -14 -5 -9 -8 4 -12 0 -12 -11 0 -10 -4 -14 -8 -8 -4 6 -13 11 -21 13
-12 3 -12 1 0 -15 13 -17 13 -17 -14 0 -19 12 -26 14 -25 5 2 -7 -3 -12 -10
-10 -9 2 -10 -3 -3 -16 6 -11 6 -24 0 -33 -5 -8 -9 -9 -9 -3 0 15 -49 24 -57
11 -3 -5 -1 -7 4 -4 6 4 13 0 16 -7 4 -11 0 -13 -15 -11 -25 5 -58 -11 -58
-28 0 -8 4 -7 10 3 5 8 12 11 17 7 8 -9 -17 -28 -28 -21 -4 2 -15 -6 -25 -18
-11 -15 -14 -17 -11 -5 4 9 2 17 -3 17 -6 0 -10 -9 -10 -20 0 -11 -4 -20 -10
-20 -5 0 -7 8 -4 18 5 13 4 14 -4 3 -6 -8 -15 -10 -23 -5 -11 6 -12 5 -2 -7
10 -12 8 -15 -8 -16 -11 -1 -17 2 -14 7 3 5 0 12 -6 16 -8 4 -9 3 -5 -5 4 -6
0 -14 -9 -17 -9 -4 -14 -13 -11 -20 3 -7 1 -16 -4 -19 -6 -4 -10 -1 -10 4 0
15 -40 7 -50 -9 -5 -8 -6 -18 -3 -24 4 -5 -1 -7 -10 -3 -20 8 -47 -1 -47 -15
0 -6 8 -4 18 3 9 7 6 1 -7 -14 -24 -26 -70 -39 -55 -15 4 7 3 8 -4 4 -7 -4
-12 -14 -12 -22 0 -20 -18 -18 -23 4 -4 16 -5 16 -6 -1 0 -10 -5 -16 -10 -13
-4 3 -7 -6 -5 -19 1 -14 -2 -25 -8 -25 -6 0 -8 7 -5 15 4 8 1 17 -5 21 -6 4
-9 3 -6 -2 8 -14 -25 -39 -50 -38 -17 1 -21 -3 -17 -13 3 -10 1 -13 -9 -10 -7
3 -23 -1 -34 -8 -10 -8 -23 -11 -27 -7 -5 4 -5 1 -1 -5 5 -10 13 -9 32 3 13 9
24 12 24 6 0 -9 -28 -22 -55 -26 -5 0 -10 -7 -10 -15 0 -8 -8 -15 -18 -17 -9
-1 -15 2 -11 7 3 5 9 7 13 5 9 -6 7 32 -2 39 -4 3 -5 2 -2 -1 7 -10 -15 -45
-25 -39 -4 3 -6 -5 -3 -17 5 -23 5 -23 -10 -3 -16 20 -16 20 -13 -1 3 -12 -1
-21 -9 -21 -7 0 -11 7 -8 16 4 14 4 14 -6 1 -10 -14 -16 -7 -12 13 1 5 -3 6
-9 2 -8 -5 -7 -11 1 -21 8 -10 9 -18 0 -27 -6 -8 -8 -17 -4 -21 4 -4 0 -4 -10
0 -16 6 -16 7 -2 18 15 10 14 12 -4 12 -11 0 -17 -4 -15 -8 3 -5 -2 -11 -10
-14 -9 -3 -13 -11 -9 -17 4 -6 1 -7 -7 -2 -10 6 -12 4 -7 -7 4 -12 0 -15 -19
-13 -15 1 -24 -3 -24 -12 0 -8 -5 -11 -10 -8 -6 4 -8 11 -5 16 3 5 -1 6 -9 3
-9 -3 -16 -10 -16 -16 0 -5 6 -6 13 -3 6 4 4 0 -5 -8 -10 -8 -15 -17 -11 -21
4 -4 0 -4 -10 0 -9 3 -14 11 -10 17 3 6 1 7 -6 3 -9 -6 -9 -11 0 -22 10 -12 9
-13 -4 -8 -8 3 -26 0 -39 -7 -22 -12 -22 -11 -9 7 15 19 14 19 -5 0 -13 -13
-15 -20 -6 -23 17 -6 15 -20 -3 -20 -8 0 -15 4 -15 9 0 4 -8 8 -17 7 -11 0
-13 -3 -5 -6 6 -2 12 -9 12 -14 0 -4 -7 -5 -17 -2 -12 5 -14 3 -8 -8 8 -12 6
-12 -8 -1 -20 17 -43 6 -28 -12 8 -10 4 -12 -18 -11 -21 1 -28 -2 -24 -12 4
-10 9 -11 18 -3 10 8 15 8 21 -1 4 -7 3 -9 -4 -5 -6 3 -13 2 -17 -3 -4 -7 -15
-7 -30 -1 -26 10 -33 2 -15 -16 7 -7 0 -9 -22 -7 -25 3 -29 2 -18 -6 12 -8 8
-11 -17 -11 -18 0 -33 -5 -33 -11 0 -5 5 -7 12 -3 7 4 8 3 4 -5 -4 -6 -12 -9
-17 -6 -5 4 -9 1 -9 -6 0 -7 -3 -9 -7 -6 -3 4 -12 -1 -20 -11 -8 -9 -12 -12
-9 -6 4 8 -5 11 -24 10 -19 0 -26 -4 -20 -10 17 -17 11 -26 -15 -26 -14 0 -25
-5 -25 -11 0 -5 5 -7 12 -3 7 4 8 3 4 -5 -4 -6 -13 -8 -19 -4 -20 13 -45 10
-40 -4 3 -7 10 -10 17 -7 6 4 4 -1 -5 -11 -14 -14 -20 -15 -40 -5 -20 10 -22
10 -11 -1 14 -15 16 -33 3 -24 -5 3 -12 1 -16 -4 -3 -6 -13 -7 -22 -4 -12 5
-14 3 -8 -7 5 -8 4 -11 -3 -6 -6 3 -22 -5 -36 -19 -14 -14 -26 -22 -26 -17 0
4 5 13 12 20 9 9 9 12 0 12 -7 0 -12 -5 -12 -11 0 -6 -7 -8 -16 -5 -14 5 -15
4 -5 -8 9 -11 9 -16 0 -22 -7 -4 -9 -3 -6 3 4 6 0 13 -8 17 -8 3 -17 0 -21 -6
-4 -7 -3 -8 4 -4 7 4 12 1 12 -7 0 -22 -11 -27 -32 -16 -17 9 -18 8 -9 -9 7
-14 7 -19 -4 -19 -8 0 -12 4 -10 8 3 4 -2 6 -11 5 -9 -1 -21 -11 -26 -22 -9
-18 -8 -18 5 -1 13 16 15 16 21 2 3 -9 2 -13 -3 -10 -5 3 -13 1 -16 -5 -5 -8
-12 -7 -23 2 -14 12 -14 10 -2 -12 10 -21 10 -23 -1 -12 -7 6 -17 12 -22 12
-4 0 -5 -6 -1 -12 6 -10 4 -10 -7 0 -20 18 -27 15 -24 -13 2 -14 -1 -23 -6
-19 -5 3 -7 9 -4 14 3 5 1 11 -4 14 -5 4 -8 -4 -7 -17 2 -16 -3 -23 -16 -24
-17 -2 -18 0 -6 15 9 13 7 12 -10 -2 -12 -11 -22 -16 -22 -11 0 4 -7 2 -15 -5
-12 -10 -13 -16 -3 -27 9 -11 8 -13 -3 -11 -8 2 -17 8 -21 13 -4 6 -8 2 -8 -8
0 -15 -3 -16 -21 -6 -17 9 -20 8 -14 -2 6 -8 4 -11 -7 -7 -8 4 -21 2 -29 -4
-11 -8 -11 -9 3 -4 10 3 20 1 23 -4 6 -9 -16 -15 -38 -11 -5 1 -6 -3 -2 -8 3
-6 13 -8 23 -5 14 5 14 4 3 -4 -8 -6 -21 -8 -29 -4 -9 3 -13 1 -9 -5 3 -5 0
-10 -8 -10 -8 0 -12 4 -9 9 3 4 0 8 -7 8 -6 0 -9 -8 -6 -19 3 -14 0 -17 -15
-13 -12 3 -17 10 -13 20 4 12 3 13 -10 2 -14 -11 -13 -14 2 -26 15 -10 16 -15
5 -26 -11 -11 -12 -10 -7 2 4 11 -2 15 -24 15 -16 0 -27 -3 -25 -7 2 -4 0 -9
-6 -13 -5 -3 -10 -1 -10 6 0 7 -3 9 -7 5 -5 -4 1 -14 11 -22 11 -8 14 -14 7
-14 -7 0 -9 -5 -5 -12 4 -7 3 -8 -5 -4 -6 4 -9 12 -6 17 4 5 1 9 -4 9 -6 0
-11 -8 -11 -17 0 -15 -2 -14 -15 3 -13 16 -14 16 -9 2 4 -13 1 -18 -11 -18 -9
0 -13 5 -10 10 3 6 1 10 -4 10 -15 0 -14 -13 1 -29 10 -11 10 -13 1 -7 -8 4
-13 2 -14 -6 0 -7 -4 -4 -9 7 -8 19 -9 19 -9 -2 -1 -12 2 -23 7 -26 4 -2 0 -2
-8 1 -8 2 -27 5 -42 7 -20 2 -25 -1 -20 -13 4 -11 1 -13 -7 -7 -10 6 -11 3 -2
-13 8 -15 8 -23 -1 -28 -6 -4 -8 -3 -5 3 4 6 0 14 -9 17 -11 4 -15 2 -11 -7 3
-8 -4 -14 -19 -15 -13 -1 -24 3 -24 8 0 6 -5 10 -11 10 -8 0 -8 -4 -2 -12 12
-15 13 -49 2 -42 -4 2 -11 0 -14 -6 -5 -8 -11 -8 -20 0 -9 8 -14 6 -19 -5 -4
-10 -14 -14 -31 -11 -15 3 -23 1 -20 -5 4 -5 10 -7 15 -4 5 3 11 1 14 -4 4 -5
-6 -8 -20 -6 -22 2 -25 -1 -20 -19 5 -20 5 -21 -9 -2 -14 18 -19 15 -16 -9 1
-5 -5 -2 -13 8 -12 16 -14 16 -20 2 -3 -9 -2 -13 4 -10 6 3 10 1 10 -4 0 -6
-10 -11 -22 -11 -33 0 -57 -17 -40 -28 8 -6 0 -9 -23 -10 -26 -1 -34 2 -29 11
4 7 3 8 -2 4 -9 -9 -10 -13 -13 -44 -1 -16 -3 -16 -16 1 -8 11 -15 14 -15 8 0
-7 -3 -11 -8 -9 -4 1 -8 -2 -9 -7 -1 -5 -7 -12 -15 -17 -7 -5 -14 -13 -14 -19
-1 -5 -2 -15 -3 -22 0 -7 -8 -3 -17 8 -15 18 -15 18 -11 -4 5 -19 3 -21 -9
-11 -7 6 -11 16 -7 23 3 6 -8 -2 -25 -18 -18 -17 -35 -25 -43 -21 -7 5 -10 4
-6 -1 7 -12 0 -22 -38 -54 -16 -14 -24 -18 -17 -9 10 14 10 18 -3 23 -9 3 -14
2 -12 -2 3 -4 1 -16 -4 -27 -7 -17 -8 -18 -8 -2 -1 15 -4 16 -23 6 -13 -7 -25
-12 -28 -11 -3 1 -5 -2 -5 -8 0 -5 -4 -10 -10 -11 -5 -1 -19 -6 -30 -12 -11
-6 -24 -10 -28 -9 -4 1 -3 -8 4 -20 l12 -23 -23 20 -23 20 13 -25 c10 -20 10
-23 0 -13 -9 8 -19 9 -32 2 -10 -5 -23 -7 -29 -3 -8 4 -8 0 0 -14 16 -29 14
-39 -3 -16 -14 18 -15 18 -25 -6 -5 -14 -10 -19 -10 -12 -1 7 -6 10 -13 6 -8
-5 -6 -11 6 -19 14 -10 9 -12 -29 -10 -25 2 -48 -2 -52 -8 -3 -6 -1 -7 5 -3 7
4 12 3 12 -3 0 -6 6 -8 14 -5 8 3 16 1 19 -3 3 -5 -6 -9 -21 -9 -16 1 -26 -4
-25 -11 4 -18 -2 -16 -18 4 -12 14 -12 16 0 8 10 -5 12 -4 7 3 -13 22 -28 13
-22 -12 3 -14 1 -28 -6 -32 -7 -4 -8 -3 -4 5 4 6 1 18 -7 26 -13 13 -16 13
-21 -1 -3 -8 -2 -12 4 -9 6 3 10 -1 10 -10 0 -9 -4 -13 -10 -10 -11 7 -55 -14
-46 -22 3 -3 12 0 21 7 19 16 20 3 0 -16 -8 -9 -20 -12 -27 -8 -10 6 -10 5 -1
-7 10 -12 10 -18 0 -28 -9 -10 -8 -11 8 -5 18 7 18 6 6 -9 -9 -11 -10 -17 -2
-17 6 0 11 -5 11 -11 0 -5 -4 -8 -9 -5 -5 3 -11 -1 -14 -9 -4 -8 -1 -12 6 -9
18 6 14 -45 -4 -57 -11 -7 -10 -9 6 -9 11 0 16 -4 10 -8 -15 -11 -17 -32 -3
-32 6 0 4 -6 -7 -13 -14 -11 -15 -16 -5 -22 9 -5 11 -4 6 3 -4 7 -2 12 3 12
14 0 9 -34 -8 -54 -11 -13 -10 -15 9 -11 18 3 20 2 10 -10 -7 -8 -17 -12 -24
-9 -6 3 -1 -3 11 -13 17 -14 20 -21 12 -33 -9 -13 -10 -12 -5 3 3 9 2 17 -3
17 -5 0 -11 -11 -13 -24 -4 -19 -1 -23 11 -18 14 5 14 3 2 -11 -11 -14 -11
-17 0 -18 8 0 5 -4 -6 -9 -16 -7 -17 -9 -3 -9 9 -1 20 -6 24 -13 5 -7 3 -8 -6
-3 -10 6 -12 3 -8 -13 4 -12 2 -20 -3 -16 -5 3 -9 0 -9 -5 0 -6 6 -11 13 -12
6 0 3 -4 -8 -9 -16 -7 -17 -9 -3 -9 9 -1 20 -6 24 -13 5 -7 3 -8 -6 -3 -10 6
-12 3 -8 -13 4 -12 2 -20 -3 -16 -5 3 -9 0 -9 -5 0 -6 5 -11 11 -11 6 0 8 -7
5 -17 -4 -9 -1 -20 6 -25 11 -6 10 -8 0 -8 -7 0 -10 -5 -6 -12 4 -7 3 -8 -5
-4 -6 4 -9 12 -6 17 10 16 -2 10 -16 -8 -7 -10 -10 -15 -5 -11 12 10 39 -19
30 -33 -3 -6 0 -15 7 -20 11 -7 11 -9 1 -9 -7 0 -10 -5 -6 -12 4 -7 3 -8 -5
-4 -6 4 -8 12 -5 18 4 7 2 8 -4 4 -16 -10 -15 -12 7 -33 15 -14 17 -22 10 -33
-9 -12 -10 -12 -5 3 3 9 2 17 -3 17 -5 0 -11 -11 -13 -24 -3 -16 -1 -23 7 -20
6 3 12 -2 12 -10 0 -8 -4 -13 -9 -10 -4 3 -8 0 -8 -5 0 -6 4 -11 9 -11 5 0 11
-9 14 -19 3 -14 1 -18 -9 -14 -8 3 -11 10 -7 16 4 6 1 7 -6 2 -9 -5 -9 -11 -3
-17 6 -6 8 -17 5 -26 -4 -9 -2 -13 4 -9 15 9 10 -17 -6 -37 -11 -13 -10 -15 9
-11 18 3 20 2 10 -10 -7 -8 -17 -12 -24 -9 -6 3 -1 -3 11 -13 17 -14 20 -21
12 -33 -9 -13 -10 -12 -5 3 3 9 2 17 -3 17 -5 0 -11 -11 -13 -24 -4 -19 -1
-23 11 -18 14 5 14 3 2 -11 -11 -14 -11 -17 0 -18 8 0 5 -4 -6 -9 -16 -7 -17
-9 -3 -9 9 -1 20 -6 24 -13 5 -7 3 -8 -6 -3 -10 6 -12 3 -8 -13 4 -12 2 -20
-3 -16 -5 3 -9 0 -9 -5 0 -6 6 -11 13 -12 6 0 3 -4 -8 -9 -16 -7 -17 -9 -3 -9
9 -1 20 -6 24 -13 5 -7 3 -8 -5 -3 -9 5 -11 -1 -8 -24 3 -18 1 -29 -4 -25 -5
3 -6 10 -3 16 4 7 2 8 -4 4 -13 -8 -5 -36 12 -36 6 0 4 -5 -4 -10 -13 -9 -13
-10 0 -11 10 0 8 -3 -5 -9 -18 -8 -18 -9 -2 -9 11 -1 17 -6 14 -13 -2 -7 -11
-12 -18 -10 -9 1 -8 -3 4 -11 18 -15 24 -33 8 -22 -5 3 -13 1 -16 -5 -4 -6 -1
-9 6 -8 6 2 13 -8 14 -21 2 -22 1 -23 -12 -6 -7 11 -13 14 -13 8 0 -7 7 -19
16 -27 12 -12 12 -16 2 -16 -10 0 -10 -2 1 -9 11 -7 10 -10 -5 -14 -16 -4 -17
-5 -1 -6 9 0 17 -6 17 -12 0 -5 -6 -7 -12 -3 -10 5 -10 4 -1 -6 10 -11 9 -17
-3 -32 -15 -16 -15 -17 6 -13 18 3 20 2 10 -10 -6 -8 -9 -20 -5 -27 4 -7 -1
-4 -9 6 -9 11 -16 15 -16 9 0 -7 7 -19 16 -27 12 -12 12 -16 2 -16 -10 0 -10
-2 1 -9 11 -7 10 -10 -5 -14 -18 -4 -18 -5 -1 -6 10 0 17 -7 14 -13 -2 -7 -11
-12 -18 -10 -9 1 -8 -3 3 -11 19 -15 25 -33 9 -22 -5 3 -13 1 -16 -5 -4 -6 -1
-9 6 -8 6 2 13 -8 14 -21 2 -22 1 -23 -12 -6 -7 11 -13 14 -13 8 0 -7 7 -19
16 -27 12 -12 12 -16 2 -16 -10 0 -10 -2 1 -9 11 -7 10 -10 -5 -14 -16 -4 -17
-5 -1 -6 9 0 17 -6 17 -12 0 -5 -6 -7 -13 -3 -9 5 -9 4 0 -6 10 -11 9 -17 -3
-32 -15 -16 -15 -17 6 -13 18 3 20 2 10 -10 -7 -8 -17 -12 -24 -9 -6 3 -2 -2
8 -10 11 -9 14 -16 8 -16 -7 0 -12 -4 -12 -10 0 -5 8 -7 17 -4 17 5 17 5 1 -6
-17 -10 -27 -36 -10 -26 4 2 8 -4 8 -14 0 -14 -3 -16 -13 -8 -10 8 -12 7 -7
-6 3 -9 10 -16 14 -16 12 0 6 -76 -9 -93 -11 -14 -10 -16 9 -12 18 3 20 2 10
-10 -7 -8 -17 -12 -24 -9 -6 3 -1 -3 11 -13 17 -14 20 -21 12 -33 -9 -13 -10
-12 -5 3 3 9 2 17 -3 17 -5 0 -11 -11 -13 -24 -4 -19 -1 -23 11 -18 14 5 14 3
2 -11 -11 -14 -11 -17 0 -18 8 0 5 -4 -6 -9 -16 -7 -17 -9 -3 -9 9 -1 20 -6
24 -13 5 -7 3 -8 -6 -3 -10 6 -12 3 -8 -13 4 -12 2 -20 -3 -16 -5 3 -9 0 -9
-5 0 -6 6 -11 13 -12 6 0 3 -4 -8 -9 -16 -7 -17 -9 -3 -9 9 -1 20 -6 24 -13 5
-7 3 -8 -6 -3 -10 6 -11 1 -6 -21 4 -18 3 -24 -2 -16 -7 11 -10 9 -14 -6 -4
-15 -2 -19 8 -15 12 4 12 0 4 -21 -5 -14 -6 -26 -2 -26 4 0 0 -5 -8 -10 -12
-8 -12 -10 -1 -10 8 0 11 -7 8 -20 -3 -11 -1 -20 3 -20 13 0 6 -56 -9 -74 -11
-13 -10 -15 9 -11 18 3 20 2 10 -10 -7 -8 -17 -12 -24 -9 -6 3 -1 -3 11 -13
17 -14 20 -21 12 -33 -9 -13 -10 -12 -5 3 3 9 2 17 -3 17 -5 0 -11 -11 -13
-24 -4 -19 -1 -23 11 -18 14 5 14 3 2 -11 -11 -14 -11 -17 0 -18 8 0 5 -4 -6
-9 -16 -7 -17 -9 -3 -9 9 -1 20 -6 24 -13 5 -7 3 -8 -6 -3 -10 6 -12 3 -8 -13
4 -12 2 -20 -3 -16 -5 3 -9 0 -9 -5 0 -6 6 -11 13 -12 6 0 3 -4 -8 -9 -16 -7
-17 -9 -3 -9 9 -1 20 -6 24 -13 5 -7 3 -8 -6 -3 -10 6 -11 1 -6 -21 4 -18 3
-24 -2 -16 -7 11 -10 9 -14 -6 -4 -15 -2 -19 8 -15 12 4 12 0 4 -21 -5 -14 -6
-26 -2 -26 4 0 0 -5 -8 -10 -12 -8 -12 -10 -1 -10 8 0 11 -7 8 -20 -3 -11 -1
-20 3 -20 13 0 6 -56 -9 -74 -11 -13 -10 -15 9 -11 18 3 20 2 10 -10 -7 -8
-17 -12 -24 -9 -6 3 -1 -3 11 -13 17 -14 20 -21 12 -33 -9 -13 -10 -12 -5 3 3
9 2 17 -3 17 -5 0 -11 -11 -13 -24 -3 -15 -1 -23 6 -20 7 3 12 -4 12 -15 0
-15 -3 -17 -13 -9 -10 8 -12 7 -7 -6 3 -9 11 -16 18 -16 6 0 4 -5 -4 -10 -13
-9 -13 -10 0 -11 10 0 8 -3 -5 -9 -18 -8 -18 -9 -2 -9 11 -1 17 -6 14 -13 -2
-7 -11 -12 -18 -10 -9 1 -8 -3 3 -11 19 -15 25 -33 9 -22 -5 3 -13 1 -16 -5
-4 -6 -1 -9 6 -8 6 2 13 -8 14 -21 2 -22 1 -23 -12 -6 -7 11 -13 14 -13 8 0
-7 7 -19 16 -27 12 -12 12 -16 2 -16 -10 0 -10 -2 1 -9 11 -7 10 -10 -5 -14
-16 -4 -17 -5 -1 -6 9 0 17 -6 17 -12 0 -5 -6 -7 -12 -3 -10 5 -10 4 -1 -6 10
-11 9 -17 -3 -32 -15 -16 -15 -17 6 -13 18 3 20 2 10 -10 -6 -8 -9 -20 -5 -27
4 -7 -1 -4 -9 6 -9 11 -16 15 -16 9 0 -7 7 -19 16 -27 12 -12 12 -16 2 -16
-10 0 -10 -2 1 -9 11 -7 10 -10 -5 -14 -18 -4 -18 -5 -1 -6 10 0 17 -7 14 -13
-2 -7 -11 -12 -18 -10 -9 1 -8 -3 4 -11 18 -15 24 -33 8 -22 -5 3 -13 1 -16
-5 -4 -6 -1 -9 6 -8 6 2 13 -8 14 -21 2 -22 1 -23 -12 -6 -7 11 -13 14 -13 8
0 -7 7 -19 16 -27 12 -12 12 -16 2 -16 -10 0 -10 -2 1 -9 11 -7 10 -10 -5 -14
-16 -4 -17 -5 -1 -6 9 0 17 -6 17 -12 0 -5 -6 -7 -12 -3 -10 5 -10 4 -1 -6 10
-11 9 -17 -3 -32 -15 -16 -15 -17 6 -13 17 3 19 1 11 -9 -6 -7 -8 -16 -4 -19
3 -4 1 -7 -5 -7 -5 0 -13 6 -15 13 -4 9 -6 9 -6 0 -1 -6 3 -14 9 -18 5 -3 6
-13 3 -22 -4 -9 -2 -14 3 -10 6 3 10 -5 10 -19 0 -18 -4 -23 -15 -19 -12 5
-13 3 -4 -6 6 -6 9 -18 6 -27 -4 -9 -2 -13 4 -9 12 8 12 -11 0 -30 -4 -6 -1
-14 5 -16 10 -4 10 -6 1 -6 -7 -1 -13 -5 -13 -11 0 -5 8 -7 18 -4 16 5 16 5 0
-6 -17 -10 -27 -36 -10 -26 4 2 8 -4 8 -14 0 -14 -3 -16 -13 -8 -10 8 -12 7
-7 -6 3 -9 10 -16 14 -16 12 0 6 -76 -9 -93 -11 -14 -10 -16 9 -12 18 3 20 2
10 -10 -7 -8 -17 -12 -24 -9 -6 3 -1 -3 11 -13 17 -14 20 -21 12 -33 -9 -13
-10 -12 -5 2 3 10 2 18 -3 18 -5 0 -11 -11 -13 -24 -4 -19 -1 -23 11 -18 14 5
14 3 2 -11 -11 -14 -11 -17 0 -18 8 0 5 -4 -6 -9 -16 -7 -17 -9 -3 -9 9 -1 20
-6 24 -13 5 -7 3 -8 -6 -3 -10 6 -12 3 -8 -13 4 -12 2 -20 -3 -16 -5 3 -9 0
-9 -5 0 -6 6 -11 13 -12 6 0 3 -4 -8 -9 -16 -7 -17 -9 -3 -9 9 -1 20 -6 24
-13 5 -7 3 -8 -6 -3 -10 6 -12 3 -8 -13 4 -12 2 -20 -3 -16 -5 3 -9 0 -9 -5 0
-6 5 -11 11 -11 6 0 8 -7 5 -17 -4 -9 -1 -20 6 -25 11 -6 10 -8 0 -8 -7 0 -10
-5 -6 -12 4 -7 3 -8 -5 -4 -6 4 -9 12 -6 17 10 16 -2 10 -16 -9 -7 -9 -10 -14
-5 -10 12 10 39 -19 30 -33 -3 -6 0 -15 7 -20 11 -7 11 -9 1 -9 -7 0 -10 -5
-6 -12 4 -7 3 -8 -5 -4 -6 4 -8 12 -5 18 4 7 2 8 -4 4 -16 -10 -15 -12 7 -33
15 -14 17 -22 10 -33 -9 -12 -10 -12 -5 3 3 9 2 17 -3 17 -5 0 -11 -11 -13
-24 -3 -16 -1 -23 7 -20 6 3 12 -2 12 -10 0 -8 -4 -13 -9 -10 -4 3 -8 0 -8 -5
0 -6 4 -11 9 -11 5 0 11 -9 14 -19 3 -14 1 -18 -9 -14 -8 3 -11 10 -7 16 4 6
1 7 -6 2 -9 -5 -9 -11 -3 -17 6 -6 8 -17 5 -26 -4 -9 -2 -13 4 -9 15 9 10 -17
-6 -37 -11 -13 -10 -15 9 -11 18 3 20 2 10 -10 -7 -8 -17 -12 -24 -9 -6 3 -1
-3 11 -13 17 -14 20 -21 12 -33 -9 -13 -10 -12 -5 3 3 9 2 17 -3 17 -5 0 -11
-11 -13 -24 -4 -19 -1 -23 11 -18 14 5 14 3 2 -11 -11 -14 -11 -17 0 -18 8 0
5 -4 -6 -9 -16 -7 -17 -9 -3 -9 9 -1 20 -6 24 -13 5 -7 3 -8 -6 -3 -10 6 -12
3 -8 -13 4 -12 2 -20 -3 -16 -5 3 -9 0 -9 -5 0 -6 6 -11 13 -12 6 0 3 -4 -8
-9 -16 -7 -17 -9 -3 -9 9 -1 20 -6 24 -13 5 -7 3 -8 -6 -3 -10 6 -11 1 -6 -21
5 -21 4 -25 -4 -14 -8 13 -10 13 -10 -2 0 -10 4 -18 9 -18 5 0 11 -9 14 -19 3
-14 1 -18 -9 -14 -8 3 -11 10 -7 16 4 6 1 7 -6 2 -9 -5 -9 -11 -3 -17 6 -6 8
-17 5 -26 -5 -11 -3 -13 8 -7 12 8 12 6 0 -8 -7 -9 -10 -17 -5 -18 5 0 0 -4
-11 -9 -19 -8 -19 -9 4 -9 18 -1 22 3 16 17 -5 14 -4 15 6 5 10 -10 10 -16 2
-24 -13 -13 -5 -42 9 -33 6 4 5 10 -3 16 -11 8 -11 9 1 5 8 -2 14 -12 12 -22
-2 -10 1 -14 7 -10 6 3 11 1 11 -4 0 -6 8 -11 18 -11 9 0 26 -13 37 -29 10
-16 23 -27 28 -24 4 3 0 11 -10 19 -10 7 -13 14 -7 14 10 0 27 -14 62 -55 9
-11 14 -16 10 -11 -12 15 -10 23 8 30 8 3 12 2 9 -4 -3 -5 -1 -19 5 -30 9 -17
14 -18 32 -9 16 9 19 8 13 -2 -6 -9 -3 -11 9 -6 12 5 16 2 14 -10 -2 -10 3
-18 10 -19 6 -1 13 -3 15 -4 1 -1 16 -3 32 -5 17 -1 32 -4 35 -5 3 -1 8 -2 13
-1 4 0 7 -4 7 -10 0 -6 -7 -9 -15 -5 -8 3 -15 1 -15 -4 0 -6 5 -10 10 -10 6 0
20 -9 32 -20 12 -11 24 -17 27 -14 3 3 -2 10 -12 15 -9 6 -17 15 -17 20 0 6 7
3 16 -6 12 -11 20 -13 29 -5 9 8 15 8 20 0 4 -6 1 -9 -6 -8 -24 6 -19 -20 6
-26 23 -6 24 -9 14 -29 -11 -20 -11 -21 5 -7 25 20 46 21 46 2 0 -13 2 -14 9
-4 7 11 9 11 14 -2 4 -11 1 -16 -11 -17 -13 0 -13 -2 -3 -6 8 -3 21 3 28 13
13 18 14 17 8 -7 -5 -20 -2 -28 11 -33 14 -5 15 -4 4 9 -11 13 -10 14 6 8 17
-6 18 -5 4 13 -14 17 -14 18 2 6 9 -8 14 -20 11 -28 -3 -9 1 -14 12 -14 9 0
13 5 10 10 -3 6 -1 10 4 10 14 0 14 -6 0 -32 -7 -12 -7 -18 -1 -14 6 3 12 3
15 -1 2 -5 3 -3 1 2 -1 6 7 11 17 11 12 0 15 -4 9 -12 -12 -14 -3 -24 16 -17
8 3 11 10 7 16 -3 5 -1 7 5 3 6 -3 9 -19 7 -34 -2 -15 -2 -21 1 -14 9 20 34
14 34 -8 0 -21 15 -27 25 -10 3 5 11 10 16 10 6 0 8 -4 5 -9 -3 -5 1 -12 10
-15 8 -3 13 -10 10 -15 -3 -5 3 -7 14 -4 14 4 20 1 18 -8 -2 -10 8 -13 39 -12
23 0 42 -2 41 -6 -2 -19 3 -31 11 -26 5 3 12 1 15 -4 11 -18 -24 -5 -38 15
-11 14 -18 16 -26 8 -9 -9 -9 -14 1 -19 8 -5 10 -4 5 3 -4 7 -2 12 3 12 6 0
11 -7 11 -15 0 -8 5 -16 10 -16 6 -1 16 -2 23 -3 6 -1 18 3 26 8 11 8 13 8 7
-2 -4 -7 -2 -12 4 -12 6 0 9 -4 6 -9 -10 -16 18 -29 61 -28 22 1 39 -1 37 -5
-2 -4 0 -9 6 -13 6 -4 8 -9 6 -13 -2 -4 2 -13 10 -20 9 -8 14 -9 14 -2 0 6 4
8 10 5 6 -4 7 1 3 11 -4 12 -3 15 5 10 15 -9 16 -36 2 -36 -5 0 -2 -8 8 -18
15 -16 18 -16 29 -2 11 13 12 13 13 -2 0 -19 0 -19 45 -22 17 0 31 -7 31 -13
1 -7 2 -20 3 -29 0 -8 5 -13 11 -9 5 3 6 13 3 23 -6 16 -6 16 10 0 9 -9 17
-23 17 -32 0 -8 4 -17 9 -20 4 -3 7 7 5 22 -2 15 -1 19 2 9 3 -9 10 -14 16
-10 7 4 9 0 5 -10 -3 -9 -1 -19 5 -23 6 -4 8 -3 4 4 -4 6 1 10 13 9 15 -1 17
-4 9 -14 -9 -11 -6 -12 15 -4 17 7 28 7 32 0 4 -5 11 -6 17 -3 7 4 8 2 4 -4
-8 -13 28 -35 39 -24 5 4 5 1 1 -6 -4 -7 -12 -10 -17 -7 -5 4 -6 -2 -2 -11 4
-11 8 -13 11 -6 2 7 8 12 13 12 6 0 7 -4 4 -10 -3 -6 1 -7 9 -4 9 3 13 11 9
17 -3 6 -1 7 6 3 9 -6 9 -11 1 -21 -8 -9 -5 -14 10 -18 14 -4 18 -11 14 -24
-3 -10 -2 -14 3 -8 22 27 67 0 56 -35 -3 -9 -1 -11 4 -5 11 13 33 17 33 6 0
-5 9 -11 21 -14 13 -4 18 -10 13 -18 -4 -7 -3 -10 4 -5 6 3 14 2 17 -4 4 -7
12 -7 18 -2 20 14 42 8 39 -11 -2 -9 2 -17 8 -17 5 0 10 5 10 10 0 6 5 10 10
10 6 0 9 -5 8 -12 -2 -7 4 -12 12 -13 9 0 14 -8 12 -18 -2 -9 2 -17 8 -17 5 0
10 8 11 18 0 11 4 7 11 -11 5 -15 14 -25 19 -21 12 7 12 -9 -1 -24 -7 -9 -7
-9 1 -3 8 6 20 5 34 -5 18 -12 22 -12 22 0 0 8 -7 12 -16 9 -14 -4 -14 -4 -1
6 22 16 30 13 30 -10 0 -16 5 -20 20 -16 11 3 18 0 17 -7 -1 -6 5 -12 13 -12
8 -1 19 -2 24 -3 5 0 3 -8 -4 -16 -11 -13 -10 -14 5 -9 14 6 16 4 10 -7 -5 -8
-5 -11 1 -6 5 5 9 13 9 18 0 5 3 9 8 9 4 0 9 0 12 0 3 0 1 -10 -6 -22 -10 -18
-9 -20 5 -15 9 4 16 2 16 -3 0 -5 6 -7 14 -4 8 3 17 0 22 -7 4 -8 3 -10 -4 -5
-7 4 -12 5 -12 2 0 -3 9 -10 20 -16 16 -9 18 -8 14 5 -4 8 -2 15 3 15 5 0 10
-7 11 -15 1 -8 3 -21 4 -29 2 -17 26 -14 39 5 7 10 9 8 7 -11 -2 -16 2 -25 12
-25 8 -1 14 -7 12 -14 -1 -7 2 -9 8 -6 8 5 6 13 -6 26 -13 14 -14 23 -7 30 8
8 11 6 10 -7 -1 -12 3 -18 13 -16 8 2 12 0 8 -4 -4 -4 0 -13 10 -21 9 -8 11
-12 5 -8 -7 3 -13 1 -13 -5 0 -7 6 -10 13 -7 6 2 11 12 11 21 -1 12 7 8 27
-14 17 -17 34 -28 39 -25 12 7 44 -41 35 -54 -4 -7 1 -8 11 -4 14 5 16 3 10
-13 -6 -15 -5 -16 5 -7 10 10 9 17 -5 32 -17 19 -17 19 1 17 10 -2 18 -9 18
-17 1 -8 7 -13 14 -11 9 2 10 -4 6 -19 -6 -19 -5 -20 8 -8 8 8 12 18 9 23 -3
5 0 6 6 2 6 -4 9 -13 5 -21 -4 -11 -1 -13 13 -8 17 6 17 5 5 -10 -12 -15 -12
-17 4 -11 13 5 16 4 11 -4 -5 -8 -2 -10 9 -5 12 4 13 8 5 13 -8 5 -7 9 3 13
16 6 17 -9 4 -30 -5 -7 -4 -13 2 -13 5 0 15 8 21 18 11 16 11 16 6 -2 -5 -13
-2 -17 9 -12 17 6 21 -19 5 -27 -6 -3 -5 -4 2 -3 7 2 18 -3 23 -10 7 -10 14
-11 25 -3 13 9 13 10 -2 6 -9 -3 -18 0 -21 6 -3 7 5 12 18 12 13 0 22 -2 20
-5 -2 -3 0 -12 5 -20 5 -9 4 -20 -3 -30 -11 -13 -10 -13 5 -1 10 7 16 16 14
20 -3 4 4 7 15 7 12 0 15 -4 9 -10 -15 -15 -12 -26 6 -26 9 0 12 5 8 13 -4 6
1 5 12 -4 10 -9 26 -15 35 -14 8 2 21 -6 27 -16 8 -12 8 -19 2 -19 -5 0 -10 4
-10 9 0 13 -28 22 -35 10 -4 -5 -1 -8 7 -7 7 2 12 -3 10 -10 -1 -8 1 -11 6 -8
5 3 20 -1 35 -9 15 -8 27 -12 27 -10 0 3 9 -3 19 -12 11 -9 17 -21 14 -27 -3
-6 -3 -8 2 -4 4 4 15 2 23 -5 13 -9 14 -9 8 0 -4 8 -1 13 8 13 9 0 16 -7 16
-15 0 -8 4 -15 10 -15 5 0 7 8 3 18 -4 11 1 8 14 -8 11 -13 18 -31 15 -39 -5
-14 -4 -14 10 -1 9 8 13 19 10 24 -3 5 0 6 7 2 9 -6 9 -11 1 -21 -8 -10 -8
-15 1 -21 7 -4 9 -3 5 4 -4 7 1 10 13 9 16 -1 19 -7 15 -27 l-4 -25 10 24 c8
19 13 21 25 11 16 -14 20 -25 6 -15 -5 3 -12 1 -15 -4 -13 -20 13 -20 27 -1
13 18 15 19 21 5 3 -9 2 -14 -2 -11 -5 3 -9 -1 -9 -8 0 -8 8 -11 19 -8 10 2
19 -1 19 -7 3 -26 4 -30 13 -38 5 -5 6 -3 2 5 -9 16 6 16 23 0 10 -11 11 -9 5
5 -6 17 -5 18 15 6 11 -8 21 -17 21 -22 0 -4 -4 -5 -10 -2 -16 10 -11 -1 7
-16 11 -10 14 -10 9 -1 -5 8 0 11 16 9 13 -2 27 -13 33 -25 5 -12 18 -25 28
-28 9 -3 15 -9 12 -14 -6 -10 15 -8 34 4 9 6 12 5 8 -1 -4 -6 0 -13 8 -16 10
-4 12 -1 8 11 -4 13 -2 12 10 -3 8 -11 12 -22 8 -25 -4 -3 1 -13 11 -22 10
-10 18 -13 18 -8 0 6 7 10 16 10 9 0 12 -5 8 -13 -5 -7 -1 -6 10 2 16 13 17
13 14 -5 -2 -13 2 -18 12 -15 31 7 45 6 46 -6 1 -7 3 -16 4 -20 1 -5 2 -12 1
-16 -1 -5 3 -6 8 -3 5 4 11 1 13 -6 3 -7 7 -5 11 6 4 9 3 15 -2 11 -5 -3 -12
-1 -15 4 -4 5 -2 12 3 15 13 8 29 -16 26 -37 -3 -15 -1 -16 13 -5 12 10 14 10
8 1 -4 -8 -1 -13 8 -13 9 0 16 -4 16 -9 0 -5 7 -12 16 -15 13 -5 14 -4 6 7 -9
10 -8 14 3 14 8 0 12 -3 10 -6 -2 -4 3 -17 12 -31 10 -18 13 -19 9 -5 -5 17
-3 16 14 -5 11 -14 19 -18 17 -10 -2 8 -2 11 1 7 2 -4 11 -2 20 5 15 11 15 11
6 -2 -16 -22 -13 -48 5 -45 9 1 20 -3 24 -9 6 -7 7 -6 4 4 -2 8 -9 15 -15 15
-7 0 -12 3 -12 8 0 4 0 10 0 14 0 3 8 -1 18 -10 10 -10 22 -14 26 -10 4 4 9
-3 13 -16 4 -17 8 -20 15 -9 7 9 8 7 5 -10 -3 -12 -1 -20 3 -17 5 3 12 1 15
-5 4 -6 16 -8 28 -4 20 6 21 5 7 -11 -14 -17 -13 -17 6 -7 16 9 26 8 42 -4 12
-8 22 -20 22 -26 0 -7 -6 -4 -13 6 -12 17 -14 17 -28 -1 -13 -16 -12 -17 2 -5
14 10 18 10 22 -3 5 -12 12 -13 32 -5 37 14 44 12 15 -5 -24 -14 -24 -14 15
-10 25 3 35 1 26 -4 -10 -7 -11 -12 -1 -27 11 -18 11 -18 6 0 -5 14 -3 16 6 9
7 -6 22 -9 33 -7 22 3 47 -14 39 -27 -3 -5 0 -9 6 -9 6 0 8 -5 4 -12 -5 -8 0
-9 15 -5 17 4 20 2 12 -7 -7 -8 -5 -12 9 -12 10 0 17 3 15 6 -2 4 2 7 9 7 8 0
12 -7 8 -15 -4 -11 -1 -13 7 -7 11 6 11 3 1 -16 l-13 -24 22 19 c19 17 21 18
15 3 -3 -10 -3 -17 2 -16 21 4 35 -2 29 -11 -4 -6 -3 -10 2 -9 4 1 16 1 27 0
15 -1 16 -4 6 -16 -10 -12 -7 -13 19 -5 23 6 34 4 50 -10 12 -9 21 -21 21 -25
0 -5 -10 1 -23 13 -21 20 -23 20 -23 2 0 -10 5 -16 10 -13 5 3 15 -2 23 -12 7
-11 13 -14 13 -8 0 19 28 23 42 5 11 -13 11 -14 -1 -7 -10 6 -12 4 -7 -4 5 -7
10 -10 13 -7 6 6 63 -21 63 -30 0 -3 -5 -2 -12 2 -6 4 -8 3 -4 -4 3 -6 15 -9
26 -7 11 2 20 0 20 -6 0 -5 5 -9 11 -9 5 0 7 4 4 10 -3 6 1 7 10 3 9 -3 13 -9
8 -12 -5 -3 -12 -14 -16 -23 -4 -12 -2 -15 8 -11 8 3 13 9 10 13 -3 5 5 6 17
2 14 -3 19 -2 14 6 -4 7 -2 12 4 12 7 0 9 -7 6 -16 -5 -12 -1 -14 15 -9 11 4
27 1 37 -7 16 -12 16 -11 2 7 -8 11 -22 26 -30 33 -13 11 -12 12 5 3 23 -10
59 4 50 20 -3 5 0 6 8 3 8 -3 21 1 28 9 12 13 16 13 34 -1 11 -9 14 -10 8 -2
-18 20 -16 35 2 20 9 -7 18 -10 22 -6 3 3 1 6 -5 6 -7 0 -12 5 -12 10 0 7 6 7
19 1 15 -8 20 -7 25 5 3 8 10 13 14 10 5 -3 9 1 9 9 0 13 -4 12 -19 -2 -10 -9
-21 -13 -25 -10 -3 4 -1 7 6 7 7 0 9 5 6 10 -4 6 -3 10 2 9 4 -1 11 0 16 1 4
1 13 3 20 4 6 1 11 7 10 13 -1 6 11 9 28 8 22 -2 29 1 25 11 -7 18 13 29 27
15 9 -9 8 -11 -5 -6 -10 4 -18 5 -18 2 0 -14 30 -14 42 1 7 8 8 13 2 9 -6 -3
-11 0 -11 7 0 8 8 11 19 8 10 -2 15 -8 12 -13 -3 -5 0 -9 5 -9 6 0 11 5 11 11
0 8 6 7 18 -2 15 -13 16 -12 3 3 -7 10 -17 15 -22 12 -5 -3 -9 0 -9 7 0 6 8 9
20 6 17 -4 18 -2 9 15 -9 16 -8 19 2 12 19 -11 49 -12 55 -2 3 4 8 6 12 4 4
-2 13 2 20 10 16 17 8 18 -21 3 -12 -7 -19 -8 -15 -4 4 5 2 15 -5 24 -11 14
-10 15 7 1 15 -11 20 -12 23 -3 4 10 10 10 26 2 12 -7 19 -8 15 -4 -4 5 -3 14
3 22 9 11 15 11 28 1 9 -7 13 -9 9 -4 -4 5 0 15 8 23 8 8 11 19 8 25 -4 7 -2
8 5 4 6 -4 19 -2 28 6 9 7 18 12 20 11 1 -2 11 -3 21 -3 14 0 15 2 2 10 -13 8
-12 10 5 11 45 3 50 5 48 16 -2 7 4 10 12 7 8 -4 12 -11 8 -17 -3 -6 -1 -7 5
-3 6 4 9 13 6 20 -3 8 0 17 7 22 8 5 10 3 4 -6 -5 -9 -4 -11 3 -6 18 11 14 26
-5 27 -10 0 -13 3 -6 5 7 3 21 0 32 -5 14 -8 22 -8 27 1 4 7 3 8 -4 4 -17 -10
-15 -1 2 13 11 9 16 9 22 0 5 -8 3 -9 -6 -4 -8 5 -11 4 -6 -3 4 -6 14 -8 22
-5 13 5 13 7 2 14 -13 9 -12 10 22 14 11 1 23 4 28 5 4 1 11 2 16 1 5 -1 4 5
-4 13 -9 12 -9 16 -1 16 7 0 10 4 7 8 -3 5 1 9 9 9 11 0 12 -4 4 -14 -7 -8 -8
-13 -1 -13 11 0 24 28 18 39 -3 4 7 8 20 9 14 1 22 -2 19 -8 -3 -5 1 -7 9 -4
8 3 12 12 9 20 -3 8 -10 11 -16 7 -6 -4 -7 -1 -3 6 6 9 13 8 27 -5 15 -14 18
-14 14 -3 -6 17 31 53 60 57 37 5 46 12 39 24 -5 8 0 7 11 -2 17 -13 18 -13
13 1 -5 13 -2 16 13 12 10 -3 19 -10 19 -16 0 -5 10 2 21 17 12 15 27 25 35
22 9 -3 11 0 7 12 -6 15 -5 16 12 2 19 -15 19 -15 1 15 -12 18 -14 26 -5 19
20 -14 42 -12 46 6 4 13 3 13 -7 0 -8 -10 -10 -11 -8 -2 2 8 7 13 12 12 5 -1
13 4 18 12 6 9 7 5 3 -12 -7 -23 -6 -23 7 -7 7 10 20 19 28 20 25 4 39 17 34
30 -3 8 5 13 18 14 18 2 20 0 8 -8 -13 -9 -13 -10 0 -6 8 2 14 11 14 20 -1 10
4 13 14 10 9 -4 13 -2 9 3 -3 6 3 16 15 23 11 7 17 8 13 2 -9 -16 -16 -55 -7
-47 4 4 7 13 7 19 0 7 8 12 17 12 10 0 17 5 17 10 -1 6 -6 9 -13 7 -6 -1 -2 5
8 13 22 17 51 20 41 5 -4 -6 -11 -7 -17 -4 -7 5 -8 2 -4 -5 10 -16 47 15 40
33 -2 6 4 12 15 13 11 1 22 -6 25 -15 3 -9 4 -5 2 10 -2 16 1 28 6 28 5 0 6 5
2 12 -4 7 -3 8 4 4 6 -4 9 -13 5 -21 -3 -8 -1 -15 5 -15 6 0 9 11 8 25 -2 13
1 22 6 19 11 -7 69 42 60 51 -4 5 -2 5 5 1 7 -4 10 -13 7 -21 -4 -8 -10 -13
-14 -10 -5 3 -11 1 -14 -4 -4 -5 2 -8 11 -7 9 2 19 8 21 14 2 7 7 10 11 7 5
-2 17 3 27 11 10 9 13 12 5 8 -9 -4 -12 -3 -8 4 4 5 15 8 26 5 11 -3 21 2 25
13 5 13 4 14 -7 6 -10 -9 -14 -8 -14 3 0 8 3 13 5 10 3 -3 12 1 20 8 11 8 14
8 9 0 -12 -20 12 -25 35 -8 13 8 22 18 21 20 -9 17 0 24 22 15 19 -7 23 -6 18
5 -3 8 -10 12 -16 8 -6 -4 -7 -1 -3 6 5 7 10 10 13 7 3 -3 19 2 35 10 24 12
32 13 44 3 12 -10 15 -10 12 1 -2 8 4 14 12 15 10 0 14 10 13 30 0 17 1 24 4
17 2 -6 9 -10 14 -7 5 4 6 -2 3 -12 -5 -15 -4 -16 5 -3 10 14 16 7 12 -13 -1
-5 3 -6 9 -2 11 7 0 27 -25 48 -6 5 -3 7 7 3 10 -3 20 -1 23 4 4 6 11 10 18
10 6 0 3 -6 -8 -13 -17 -13 -16 -14 6 -12 16 1 23 7 21 18 -4 22 16 31 35 15
15 -12 15 -11 5 9 -9 17 -9 22 3 27 8 3 20 -1 27 -8 10 -10 17 -9 37 10 14 13
28 21 32 19 4 -3 12 8 18 23 7 16 20 28 32 29 10 1 17 -2 15 -6 -3 -4 1 -8 9
-8 8 0 13 5 12 11 -1 5 3 10 10 11 6 0 15 3 19 7 4 4 14 2 22 -5 12 -9 11 -6
-2 15 -11 17 -13 28 -7 33 11 6 15 -1 12 -19 -1 -5 5 -4 13 4 13 10 16 10 16
-1 0 -8 7 -4 16 9 8 12 13 26 10 31 -4 5 2 7 13 4 13 -3 20 2 24 16 3 12 9 21
14 20 4 -1 21 -1 37 0 20 1 27 5 23 16 -6 14 7 28 31 31 6 1 10 -2 7 -6 -3 -5
-1 -12 5 -15 6 -4 9 -1 8 7 -2 7 3 12 10 10 12 -2 16 10 13 37 -2 11 0 11 12
0 8 -8 11 -15 6 -17 -5 -2 -9 -11 -9 -20 0 -12 5 -10 17 8 10 14 16 34 15 45
l-4 20 17 -20 c14 -17 16 -18 11 -2 -4 13 -2 16 7 10 20 -12 37 -12 34 0 -1 7
7 11 18 9 16 -2 17 -1 5 7 -10 7 -20 5 -35 -7 -19 -16 -19 -16 -6 0 21 28 67
48 81 34 8 -8 9 -7 4 7 -5 13 -2 16 10 11 9 -3 13 -11 9 -17 -3 -6 -1 -7 5 -3
6 4 9 12 7 19 -9 25 14 41 67 46 4 1 5 7 2 15 -4 11 1 14 20 12 17 -2 26 2 26
10 0 8 5 14 11 14 5 0 7 5 3 12 -4 7 -3 8 4 4 9 -5 9 -13 1 -29 -9 -21 -9 -21
5 -3 8 10 20 15 27 10 8 -5 10 -3 4 6 -6 10 -4 12 9 7 11 -4 15 -3 11 4 -4 6
-14 8 -24 5 -9 -4 -5 2 9 13 17 14 29 17 42 10 14 -8 16 -5 12 19 -4 26 -3 26
9 6 10 -18 14 -20 25 -8 17 18 15 29 -2 15 -14 -11 -15 -6 -7 27 1 2 11 -4 22
-12 30 -21 52 -11 38 17 -10 18 -9 20 2 10 18 -18 29 -16 29 3 0 14 3 14 15 4
13 -11 14 -10 8 6 -6 16 -4 17 9 6 13 -10 15 -9 13 13 -2 14 1 23 6 19 5 -3 7
-9 4 -14 -3 -5 -1 -11 4 -15 6 -3 15 4 21 15 6 11 16 17 22 14 7 -4 8 -2 4 5
-6 9 -11 9 -21 1 -10 -8 -15 -8 -21 1 -4 7 -3 9 4 5 6 -3 13 -2 17 4 4 6 11 7
17 4 8 -5 9 -1 5 12 -5 14 -2 13 13 -6 14 -18 18 -20 14 -6 -6 16 -4 17 13 8
15 -9 20 -8 20 3 0 8 -4 12 -8 10 -10 -7 -5 22 6 32 4 4 6 3 2 -2 -3 -6 4 -17
16 -24 12 -8 19 -10 15 -6 -9 10 28 38 40 31 5 -3 9 1 9 9 0 12 -7 10 -32 -5
-24 -15 -32 -16 -32 -6 0 8 5 12 12 10 6 -3 21 5 33 16 12 11 22 16 22 10 0
-5 7 -10 15 -10 8 0 15 5 15 10 0 6 -6 10 -12 10 -9 0 -9 3 1 9 20 13 41 2 34
-17 -4 -14 -3 -15 5 -2 7 9 8 18 1 26 -7 8 -6 15 2 20 7 4 9 3 6 -3 -4 -6 2
-13 13 -16 17 -4 18 -2 9 15 -6 11 -8 22 -5 26 3 3 6 0 6 -8 0 -9 4 -9 13 -2
6 6 27 9 44 8 32 -2 32 -2 18 21 -9 13 -11 23 -5 23 5 0 10 -4 10 -9 0 -5 7
-12 16 -15 13 -5 14 -3 6 7 -8 9 -8 17 0 27 8 12 9 12 4 -2 -3 -10 -1 -18 4
-18 6 0 10 8 10 17 0 15 2 14 15 -3 14 -19 14 -19 11 1 -2 11 2 29 9 39 13 18
14 17 12 -2 0 -11 -5 -18 -9 -16 -4 3 -5 -3 -1 -12 4 -12 8 -14 11 -6 3 10 7
10 20 0 14 -10 15 -10 5 2 -20 22 -15 40 10 40 18 0 19 2 7 10 -8 5 -10 10 -5
10 6 0 17 -6 24 -13 11 -10 13 -8 8 10 -3 13 0 26 5 30 6 3 8 1 5 -4 -11 -18
19 -22 42 -7 12 8 25 12 31 9 6 -3 7 1 4 10 -5 11 -10 13 -19 5 -6 -5 -16 -6
-20 -2 -5 4 -5 1 -1 -5 5 -9 2 -11 -9 -7 -19 8 -14 14 12 19 10 1 17 9 15 16
-3 11 -1 12 9 1 7 -6 22 -12 33 -12 20 0 20 0 0 15 -18 14 -18 15 0 8 13 -4
24 1 38 18 16 20 18 21 16 5 -2 -10 3 -21 10 -24 7 -2 13 2 11 9 -1 8 -1 23 0
34 2 18 3 18 16 -5 l15 -25 -4 27 c-4 21 -1 26 11 21 12 -5 14 -3 8 8 -8 12
-6 12 8 1 14 -12 19 -11 38 7 12 11 26 18 30 15 5 -3 6 2 3 10 -3 9 -2 16 4
16 6 0 19 3 29 6 16 5 16 4 -1 -10 -11 -9 -15 -16 -10 -16 12 0 54 42 54 54 0
4 -5 4 -12 0 -7 -4 -8 -3 -4 5 4 6 11 9 16 6 5 -3 15 4 23 15 14 20 15 20 22
3 6 -17 8 -16 15 3 6 16 16 21 34 19 14 -2 24 1 20 6 -5 8 10 13 29 10 5 -1 6
3 2 9 -3 5 -2 10 4 10 5 0 12 -8 14 -17 4 -17 5 -17 6 0 0 10 -4 28 -11 40
-10 19 -9 20 4 10 8 -7 18 -10 22 -6 4 4 4 -1 0 -12 -6 -16 -1 -14 19 7 26 28
55 39 41 16 -4 -7 -3 -8 5 -4 9 6 9 11 0 22 -6 8 -9 17 -5 21 3 3 6 1 6 -5 0
-7 5 -12 11 -12 5 0 7 6 3 13 -5 7 0 6 11 -3 16 -14 17 -13 11 8 -8 23 7 31
20 10 5 -7 3 -8 -6 -3 -9 5 -11 4 -6 -4 6 -8 12 -9 20 -2 7 6 16 8 19 4 11
-10 8 6 -4 29 -9 16 -8 19 3 12 22 -14 41 -14 29 0 -7 8 -6 17 1 26 8 12 9 12
4 -2 -3 -10 -1 -18 4 -18 6 0 10 12 10 26 0 17 -4 23 -12 18 -10 -6 -10 -5 -1
7 9 11 9 19 2 26 -8 8 -7 13 2 18 8 6 10 4 4 -5 -5 -9 -4 -11 4 -6 6 4 9 12 5
17 -3 5 0 18 7 27 11 13 8 12 -9 -2 -26 -23 -28 -15 -5 22 16 24 16 26 1 14
-15 -12 -17 -11 -15 7 0 11 5 17 9 15 4 -3 8 2 8 11 0 10 -5 13 -12 9 -10 -6
-10 -5 -1 7 9 11 9 19 2 26 -8 8 -7 13 2 18 8 6 10 4 4 -5 -5 -8 -4 -11 3 -6
6 4 9 13 5 21 -3 8 1 15 8 15 7 0 9 3 6 6 -4 4 -13 1 -22 -6 -9 -8 -15 -8 -15
-2 0 6 5 14 10 17 6 3 10 11 10 16 0 6 -6 7 -12 3 -10 -6 -10 -4 0 8 9 11 10
18 2 23 -13 8 -13 25 1 25 5 0 8 -4 5 -8 -3 -5 1 -9 9 -9 11 0 12 4 4 13 -6 7
-8 18 -4 24 3 5 0 12 -7 15 -8 3 -14 15 -15 26 -2 21 -1 21 13 3 12 -17 13
-17 8 -1 -3 9 0 25 7 35 13 15 12 16 -3 4 -15 -12 -17 -11 -17 5 1 10 -2 30
-5 45 -3 15 -2 30 4 33 5 3 15 16 20 28 11 21 11 21 -4 3 -13 -17 -18 -18 -29
-6 -7 8 -8 10 -1 7 7 -4 14 0 18 8 3 8 1 15 -5 15 -6 0 -3 7 5 16 20 19 21 31
2 14 -12 -9 -15 -8 -13 9 0 11 5 17 9 15 4 -3 8 2 8 11 0 10 -5 13 -12 9 -10
-6 -10 -5 -1 7 9 11 9 19 2 26 -8 8 -7 13 2 18 8 6 10 4 4 -5 -5 -8 -4 -11 3
-6 6 4 9 13 5 21 -3 8 1 15 8 15 7 0 9 3 6 6 -4 4 -13 1 -22 -6 -20 -16 -19
-6 2 28 16 24 16 26 1 14 -15 -12 -17 -11 -15 7 0 11 5 17 9 15 4 -3 8 2 8 11
0 10 -5 13 -12 9 -10 -6 -10 -5 -1 7 9 11 9 19 2 26 -8 8 -7 13 2 18 8 6 10 4
4 -5 -5 -8 -4 -11 3 -6 6 4 9 13 5 21 -3 8 1 15 8 15 7 0 9 3 6 6 -4 4 -13 1
-22 -6 -9 -8 -15 -8 -15 -2 0 6 5 14 10 17 6 3 10 11 10 16 0 6 -6 7 -12 3
-10 -6 -10 -4 0 8 9 11 10 18 2 23 -13 8 -13 25 1 25 5 0 8 -4 5 -8 -3 -5 1
-9 9 -9 11 0 12 4 4 13 -6 7 -8 18 -4 24 3 5 0 12 -7 15 -8 3 -14 15 -15 26
-2 21 -1 21 13 3 12 -17 13 -17 8 -1 -3 9 0 25 7 35 13 15 12 16 -3 4 -15 -12
-17 -11 -17 5 1 10 -2 30 -5 45 -3 15 -2 30 4 33 5 3 15 16 20 28 11 21 11 21
-4 3 -13 -17 -18 -18 -29 -6 -7 8 -8 10 -1 7 7 -4 14 0 18 8 3 8 1 15 -5 15
-6 0 -3 7 5 16 20 19 21 31 2 14 -12 -9 -15 -8 -13 9 0 11 5 17 9 15 4 -3 8 2
8 11 0 10 -5 13 -12 9 -10 -6 -10 -5 -1 7 9 11 9 19 2 26 -8 8 -7 13 2 18 8 6
10 4 4 -5 -5 -8 -4 -11 3 -6 6 4 9 13 5 21 -3 8 1 15 8 15 7 0 9 3 6 6 -4 4
-13 1 -22 -6 -20 -16 -19 -6 2 28 16 24 16 26 1 14 -15 -12 -17 -11 -15 7 0
11 5 17 9 15 4 -3 8 2 8 11 0 10 -5 13 -12 9 -10 -6 -10 -5 -1 7 9 11 9 19 2
26 -8 8 -7 13 2 18 8 6 10 4 4 -5 -5 -8 -4 -11 3 -6 6 4 9 13 5 21 -3 8 1 15
8 15 7 0 9 3 6 6 -4 4 -13 1 -22 -6 -9 -8 -15 -8 -15 -2 0 6 5 14 10 17 6 3
10 11 10 16 0 6 -6 7 -12 3 -10 -6 -10 -4 0 8 9 11 10 18 2 23 -13 8 -13 25 1
25 5 0 8 -4 5 -8 -3 -5 1 -9 9 -9 11 0 12 4 4 13 -6 7 -8 18 -4 24 3 5 0 12
-7 15 -8 3 -14 15 -15 26 -2 21 -1 21 13 3 12 -17 13 -17 8 -1 -3 9 0 25 7 35
13 15 12 16 -3 4 -15 -12 -17 -11 -17 5 1 10 -2 30 -5 45 -3 15 -2 30 4 33 5
3 15 16 20 28 11 21 11 21 -4 3 -13 -17 -18 -18 -29 -6 -7 8 -8 10 -1 7 7 -4
14 0 18 8 3 8 1 15 -5 15 -6 0 -3 7 5 16 20 19 21 31 2 14 -12 -9 -15 -8 -13
9 0 11 5 17 9 15 4 -3 8 2 8 11 0 10 -5 13 -12 9 -10 -6 -10 -5 -1 7 9 11 9
19 2 26 -8 8 -7 13 2 18 8 6 10 4 4 -5 -5 -8 -4 -11 3 -6 6 4 9 13 5 21 -3 8
1 15 8 15 7 0 9 3 6 6 -4 4 -13 1 -22 -6 -20 -16 -19 -6 2 28 16 24 16 26 1
14 -15 -12 -17 -11 -15 7 0 11 5 17 9 15 4 -3 8 2 8 11 0 10 -5 13 -12 9 -10
-6 -10 -5 -1 7 9 11 9 19 2 26 -8 8 -7 13 2 18 8 6 10 4 4 -5 -5 -8 -4 -11 3
-6 6 4 9 13 5 21 -3 8 1 15 8 15 7 0 9 3 6 6 -4 4 -13 1 -22 -6 -9 -8 -15 -8
-15 -2 0 6 5 14 10 17 6 3 10 11 10 16 0 6 -6 7 -12 3 -10 -6 -10 -4 0 8 9 11
10 18 2 23 -13 8 -13 25 1 25 5 0 8 -4 5 -8 -3 -5 1 -9 9 -9 11 0 12 4 4 13
-6 7 -8 18 -4 24 3 5 0 12 -7 15 -8 3 -14 15 -15 26 -2 21 -1 21 13 3 12 -17
13 -17 8 -1 -3 9 0 25 7 35 13 15 12 16 -3 4 -15 -12 -17 -11 -17 5 1 10 -2
30 -5 45 -3 15 -2 30 4 33 5 3 15 16 20 28 11 21 11 21 -4 3 -13 -17 -18 -18
-29 -6 -7 8 -8 10 -1 7 7 -4 14 0 18 8 3 8 1 15 -5 15 -6 0 -3 7 5 16 20 19
21 31 2 14 -12 -9 -15 -8 -13 9 0 11 5 17 9 15 4 -3 8 2 8 11 0 10 -5 13 -12
9 -10 -6 -10 -5 -1 7 9 11 9 19 2 26 -8 8 -7 13 2 18 8 6 10 4 4 -5 -5 -8 -4
-11 3 -6 6 4 9 13 5 21 -3 8 1 15 8 15 7 0 9 3 6 6 -4 4 -13 1 -22 -6 -20 -16
-19 -6 2 28 16 24 16 26 1 14 -15 -12 -17 -11 -15 7 0 11 5 17 9 15 4 -3 8 2
8 11 0 10 -5 13 -12 9 -10 -6 -10 -5 -1 7 9 11 9 19 2 26 -8 8 -7 13 2 18 8 6
10 4 4 -5 -5 -8 -4 -11 3 -6 6 4 9 13 5 21 -3 8 1 15 8 15 7 0 9 3 6 6 -4 4
-13 1 -22 -6 -9 -8 -15 -8 -15 -2 0 6 5 14 10 17 6 3 10 11 10 16 0 6 -6 7
-12 3 -10 -6 -10 -4 0 8 9 11 10 18 2 23 -13 8 -13 25 1 25 5 0 8 -4 5 -8 -3
-5 1 -9 9 -9 11 0 12 4 4 13 -6 7 -8 18 -4 24 3 5 0 12 -7 15 -8 3 -14 15 -15
26 -2 21 -1 21 13 3 12 -17 13 -17 8 -1 -3 9 0 25 7 35 13 15 12 16 -3 4 -15
-12 -17 -11 -17 5 1 10 -2 30 -5 45 -3 15 -2 30 4 33 5 3 15 16 20 28 11 21
11 21 -4 3 -13 -17 -18 -18 -29 -6 -7 8 -8 10 -1 7 7 -4 14 0 18 8 3 8 1 15
-5 15 -6 0 -3 7 5 16 20 19 21 31 2 14 -12 -9 -15 -8 -13 9 0 11 5 17 9 15 4
-3 8 2 8 11 0 10 -5 13 -12 9 -10 -6 -10 -5 -1 7 9 11 9 19 2 26 -8 8 -7 13 2
18 8 6 10 4 4 -5 -5 -8 -4 -11 3 -6 6 4 9 13 5 21 -3 8 1 15 8 15 7 0 9 3 6 6
-4 4 -13 1 -22 -6 -20 -16 -19 -6 2 28 16 24 16 26 1 14 -15 -12 -17 -11 -15
7 0 11 5 17 9 15 4 -3 8 2 8 11 0 10 -5 13 -12 9 -10 -6 -10 -5 -1 7 9 11 9
19 2 26 -8 8 -7 13 2 18 8 6 10 4 4 -5 -5 -8 -4 -11 3 -6 6 4 9 13 5 21 -3 8
1 15 8 15 7 0 9 3 6 6 -4 4 -13 1 -22 -6 -9 -8 -15 -8 -15 -2 0 6 5 14 10 17
6 3 10 11 10 16 0 6 -6 7 -12 3 -10 -6 -10 -4 0 8 9 11 10 18 2 23 -13 8 -13
25 1 25 5 0 8 -4 5 -8 -3 -5 1 -9 9 -9 11 0 12 4 4 13 -6 7 -8 18 -4 24 3 5 0
12 -7 15 -8 3 -14 15 -15 26 -2 21 -1 21 13 3 12 -17 13 -17 8 -1 -3 9 0 25 7
35 13 15 12 16 -3 4 -15 -12 -17 -11 -17 5 1 10 -2 30 -5 45 -3 15 -2 30 4 33
5 3 15 16 20 28 11 21 11 21 -4 3 -13 -17 -18 -18 -29 -6 -7 8 -8 10 -1 7 7
-4 14 0 18 8 3 8 1 15 -5 15 -6 0 -3 7 5 16 20 19 21 31 2 14 -12 -9 -15 -8
-13 9 0 11 5 17 9 15 4 -3 8 2 8 11 0 10 -5 13 -12 9 -10 -6 -10 -5 -1 7 9 11
9 19 2 26 -8 8 -7 13 2 18 8 6 10 4 4 -5 -5 -8 -4 -11 3 -6 6 4 9 13 5 21 -3
8 1 15 8 15 7 0 9 3 6 6 -4 4 -13 1 -22 -6 -20 -16 -19 -6 2 28 16 24 16 26 1
14 -15 -12 -17 -11 -15 7 0 11 5 17 9 15 4 -3 8 2 8 11 0 10 -5 13 -12 9 -10
-6 -10 -5 -1 7 9 11 9 19 2 26 -8 8 -7 13 2 18 8 6 10 4 4 -5 -5 -8 -4 -11 3
-6 6 4 9 13 5 21 -3 8 1 15 8 15 7 0 9 3 6 6 -4 4 -13 1 -22 -6 -9 -8 -15 -8
-15 -2 0 6 5 14 10 17 6 3 10 11 10 16 0 6 -6 7 -12 3 -10 -6 -10 -4 0 8 9 11
10 18 2 23 -13 8 -13 25 1 25 5 0 8 -4 5 -8 -3 -5 1 -9 9 -9 11 0 12 4 4 13
-6 7 -8 18 -4 24 3 5 0 12 -7 15 -8 3 -14 15 -15 26 -2 21 -1 21 13 3 12 -17
13 -17 8 -1 -3 9 0 25 7 35 13 15 12 16 -3 4 -15 -12 -17 -11 -17 5 1 10 -2
30 -5 45 -3 15 -2 30 4 33 5 3 15 16 20 28 11 21 11 21 -4 3 -13 -17 -18 -18
-29 -6 -7 8 -8 10 -1 7 7 -4 14 0 18 8 3 8 1 15 -5 15 -6 0 -3 7 5 16 20 19
21 31 2 14 -12 -9 -15 -8 -13 9 0 11 5 17 9 15 4 -3 8 2 8 11 0 10 -5 13 -12
9 -10 -6 -10 -5 -1 7 9 11 9 19 2 26 -8 8 -7 13 2 18 8 6 10 4 4 -5 -5 -8 -4
-11 3 -6 6 4 9 13 5 21 -3 8 1 15 8 15 7 0 9 3 6 6 -4 4 -13 1 -22 -6 -20 -16
-19 -6 2 28 16 24 16 26 1 14 -15 -12 -17 -11 -15 7 0 11 5 17 9 15 4 -3 8 2
8 11 0 10 -5 13 -12 9 -10 -6 -10 -5 -1 7 9 11 9 19 2 26 -8 8 -7 13 2 18 8 6
10 4 4 -5 -5 -8 -4 -11 3 -6 6 4 9 13 5 21 -3 8 1 15 8 15 7 0 9 3 6 6 -4 4
-13 1 -22 -6 -9 -8 -15 -8 -15 -2 0 6 5 14 10 17 6 3 10 11 10 16 0 6 -6 7
-12 3 -10 -6 -10 -4 0 8 9 11 10 18 2 23 -13 8 -13 25 1 25 5 0 8 -4 5 -8 -3
-5 1 -9 9 -9 11 0 12 4 4 13 -6 7 -8 18 -4 24 3 5 0 12 -7 15 -8 3 -14 15 -15
26 -2 21 -1 21 13 3 12 -17 13 -17 8 -1 -3 9 0 25 7 35 13 15 12 16 -3 4 -15
-12 -17 -11 -17 5 1 10 -2 30 -5 45 -3 15 -2 30 4 33 5 3 15 16 20 28 11 21
11 21 -4 3 -13 -17 -18 -18 -29 -6 -7 8 -8 10 -1 7 7 -4 14 0 18 8 3 8 1 15
-3 15 -5 0 -4 14 2 32 9 24 9 32 0 35 -10 4 -10 10 -2 25 10 18 9 20 -5 15
-10 -4 -15 -3 -11 3 3 6 -3 10 -14 10 -12 0 -21 5 -21 11 0 5 6 7 13 3 7 -5 7
-1 -3 12 -22 29 -24 30 -17 12 7 -20 -9 -25 -16 -5 -4 9 -8 9 -15 -1 -7 -11
-10 -11 -16 3 -3 9 -11 13 -17 9 -8 -4 -9 -3 -5 5 6 9 11 9 21 1 10 -8 15 -8
21 1 4 7 3 9 -4 5 -6 -3 -13 -2 -17 4 -4 6 -11 8 -16 5 -5 -4 -9 -2 -9 4 0 6
-8 7 -17 4 -16 -6 -17 -5 -3 13 8 10 10 16 6 12 -5 -4 -15 -3 -23 4 -10 8 -12
8 -8 -4 4 -9 0 -15 -10 -15 -11 0 -13 6 -9 21 5 17 4 19 -7 9 -7 -7 -18 -13
-24 -13 -5 0 -3 5 5 10 11 7 11 10 2 10 -7 0 -10 5 -7 10 3 6 1 10 -4 10 -6 0
-11 -4 -11 -10 0 -5 -5 -10 -11 -10 -5 0 -7 5 -4 10 6 9 -8 14 -27 11 -8 -1
-12 15 -9 33 1 5 -5 4 -13 -4 -10 -8 -16 -8 -16 -2 0 6 8 16 18 21 9 6 12 11
5 11 -6 0 -15 -4 -18 -10 -8 -13 -63 -6 -78 10 -9 10 -9 11 1 6 6 -4 12 -2 12
3 0 6 -8 11 -17 11 -13 0 -14 3 -5 12 7 7 12 16 12 22 0 5 -9 -1 -20 -14 -15
-17 -20 -19 -20 -7 0 10 -6 13 -20 10 -12 -3 -20 0 -20 6 0 7 4 10 8 7 5 -3 9
1 9 9 0 8 -3 13 -5 10 -3 -3 -14 3 -25 12 -11 10 -17 13 -14 7 4 -7 0 -17 -7
-23 -12 -10 -13 -8 -9 8 4 15 1 21 -11 21 -10 0 -15 -4 -12 -8 3 -5 -1 -9 -9
-9 -12 0 -12 4 2 20 17 19 17 20 -4 8 -29 -15 -41 -14 -20 2 13 9 14 16 6 27
-9 13 -10 12 -5 -2 3 -10 1 -18 -4 -18 -6 0 -10 4 -10 9 0 4 -8 8 -17 8 -35 0
-44 3 -38 13 3 6 1 10 -6 10 -8 0 -8 4 1 15 11 13 10 14 -5 9 -11 -5 -16 -4
-12 3 3 5 -1 10 -9 10 -10 0 -11 -4 -4 -11 5 -5 10 -15 10 -20 0 -6 -4 -5 -9
2 -4 7 -14 14 -22 15 -8 2 -20 6 -26 10 -8 5 -13 4 -13 -2 0 -6 -5 -11 -11
-11 -8 0 -7 5 1 16 11 13 10 16 -8 21 -12 3 -22 11 -22 19 0 8 -6 11 -17 7
-13 -5 -15 -2 -10 11 4 10 1 19 -8 22 -8 4 -12 11 -8 18 4 6 -2 4 -13 -4 -30
-22 -30 -24 -9 -16 15 5 17 4 8 -5 -17 -17 -37 -1 -22 17 10 12 10 15 -2 12
-8 -2 -17 -10 -21 -18 -5 -12 -7 -11 -7 3 -1 10 -5 16 -9 13 -4 -2 -14 0 -22
6 -12 8 -12 9 3 4 9 -3 17 -1 17 4 0 6 -7 10 -16 10 -9 0 -12 5 -8 12 5 7 3 8
-7 2 -24 -15 -43 -14 -62 4 -18 16 -18 17 0 30 17 13 16 14 -5 7 -15 -4 -22
-3 -20 5 2 7 -5 14 -15 15 -9 2 -15 0 -12 -5 3 -4 -4 -6 -15 -3 -11 3 -20 10
-20 15 0 5 4 7 9 3 5 -3 12 -1 15 4 7 11 -13 9 -33 -3 -11 -7 -13 -5 -9 6 4 8
2 21 -3 29 -5 8 -9 9 -9 3 0 -6 -13 -9 -30 -6 -28 4 -29 5 -13 18 17 12 16 13
-4 7 -13 -3 -23 -9 -23 -12 0 -4 -7 -8 -16 -8 -14 0 -14 2 2 14 18 13 17 14
-1 31 -18 16 -18 16 -6 -1 12 -15 12 -17 -3 -11 -10 4 -27 7 -39 8 -12 1 -21
7 -20 13 2 7 -7 15 -18 18 -12 4 -18 13 -15 21 3 7 0 16 -6 20 -6 4 -8 3 -4
-4 3 -6 2 -13 -4 -17 -5 -3 -10 1 -10 9 0 9 -5 16 -11 16 -5 0 -7 5 -3 12 4 7
3 8 -5 4 -6 -4 -14 0 -17 9 -5 12 -9 13 -20 4 -8 -6 -14 -8 -14 -4 0 4 -8 1
-17 -6 -14 -10 -13 -8 2 11 l20 24 -29 -18 c-16 -10 -25 -12 -21 -5 6 9 3 11
-8 6 -9 -3 -16 -2 -14 2 4 15 -55 62 -71 56 -12 -4 -12 -3 -3 9 9 11 8 15 -4
20 -9 3 -14 2 -10 -3 3 -5 -3 -8 -12 -7 -9 2 -19 9 -21 17 -3 11 -1 11 7 -1 9
-13 11 -13 11 3 0 20 -11 22 -28 5 -9 -9 -12 -9 -12 1 0 7 -5 9 -12 5 -8 -5
-8 -2 1 10 12 15 12 17 0 14 -8 -2 -13 2 -12 8 1 7 -6 10 -17 7 -11 -3 -20
-10 -20 -16 0 -6 -3 -7 -6 -4 -4 4 -1 14 7 23 13 16 12 16 -10 5 -19 -11 -22
-11 -16 0 6 9 3 11 -8 6 -9 -3 -19 -2 -22 4 -4 5 -12 6 -18 3 -7 -4 -8 -3 -4
1 11 13 38 15 31 3 -5 -7 -2 -8 5 -3 9 5 10 10 2 18 -14 14 -74 20 -66 7 3 -6
1 -10 -4 -10 -17 0 -13 18 7 30 15 10 15 10 -3 8 -11 -2 -23 -7 -26 -11 -3 -5
-9 -2 -12 7 -3 8 -1 18 5 22 7 5 8 2 3 -6 -5 -9 -4 -11 4 -6 19 12 4 23 -31
21 -33 -2 -45 5 -67 40 -7 11 -10 13 -8 4 3 -9 -1 -16 -8 -16 -8 0 -11 7 -7
15 4 11 2 13 -9 6 -22 -13 -36 -13 -36 2 0 7 4 11 9 8 4 -3 8 0 8 5 0 6 -9 11
-21 11 -11 0 -18 4 -14 9 3 5 0 13 -6 17 -8 4 -9 3 -5 -4 4 -7 1 -12 -8 -12
-10 0 -13 6 -9 18 6 15 5 16 -12 2 -15 -12 -17 -12 -10 -1 6 11 4 13 -8 8 -10
-4 -26 6 -46 30 -34 40 -40 38 -15 -5 11 -18 12 -22 2 -10 -8 10 -19 14 -23
10 -5 -4 -5 -1 -1 6 4 6 2 12 -4 12 -6 0 -8 5 -5 10 6 9 -8 14 -27 11 -5 0 -8
3 -8 9 0 5 -7 10 -15 10 -10 0 -15 7 -13 18 3 18 -3 19 -37 6 -18 -7 -19 -6
-5 11 14 17 14 18 -8 6 -22 -12 -23 -11 -13 8 10 18 9 20 -6 14 -10 -4 -21
-11 -25 -17 -5 -7 -8 -6 -8 3 0 11 -3 11 -17 0 -16 -12 -17 -12 -7 1 16 21 25
52 15 45 -5 -3 -12 -1 -16 4 -3 6 -13 7 -22 4 -11 -4 -14 -2 -9 5 4 6 -3 16
-16 22 -22 11 -22 10 -4 -4 11 -9 16 -16 12 -16 -5 0 -3 -7 4 -15 7 -9 8 -15
2 -15 -5 0 -13 7 -16 16 -3 8 -10 13 -15 10 -4 -3 -16 3 -26 14 -10 11 -23 17
-29 13 -6 -3 -7 -2 -3 2 10 12 38 15 31 4 -8 -14 2 -11 15 4 8 11 5 14 -17 14
-57 1 -72 3 -72 13 0 6 5 9 11 8 6 -2 14 4 16 12 4 13 3 13 -6 0 -6 -8 -11
-10 -11 -5 0 6 -8 1 -16 -10 -16 -20 -16 -20 -10 1 4 14 0 26 -11 35 -16 13
-17 12 -5 -2 10 -14 10 -18 -3 -23 -9 -3 -13 -2 -10 4 6 9 -8 14 -27 11 -8 -1
-12 24 -9 43 1 5 -5 4 -13 -3 -13 -11 -20 -11 -40 2 -17 12 -26 13 -35 4 -8
-8 -11 -8 -11 0 0 6 6 13 13 16 8 3 6 10 -7 23 -20 19 -20 19 -5 -1 13 -18 12
-19 -2 -8 -9 7 -19 9 -24 5 -4 -4 -2 4 5 18 11 21 11 23 -1 14 -24 -19 -58
-24 -52 -8 3 8 9 11 14 8 5 -3 6 3 2 12 -4 11 -8 13 -11 6 -2 -7 -8 -12 -13
-12 -6 0 -7 5 -4 10 5 9 1 11 -20 10 -10 -1 -40 33 -40 44 0 6 -18 11 -40 12
-22 1 -44 3 -49 3 -4 1 -6 8 -3 16 4 8 2 17 -4 20 -5 4 -6 12 -2 18 4 7 0 6
-10 -2 -18 -14 -23 -26 -8 -16 5 3 12 1 16 -5 7 -12 -18 -14 -29 -2 -4 4 -12
8 -17 8 -5 1 -11 3 -14 4 -3 1 -11 3 -17 4 -7 0 -13 8 -14 16 -2 34 -5 40 -15
40 -8 0 -7 -6 2 -17 12 -16 12 -17 -2 -6 -9 7 -20 9 -24 5 -5 -4 -5 -1 -1 6 7
12 -4 16 -31 13 -21 -3 -15 15 10 28 14 8 15 10 3 6 -10 -3 -25 0 -33 7 -18
14 -45 20 -38 8 3 -5 -8 -4 -25 1 -16 6 -30 16 -30 22 0 7 4 7 12 -1 15 -15
28 -16 28 -2 0 5 -5 9 -12 7 -7 -1 -12 3 -13 10 0 6 -4 15 -9 20 -5 4 -6 3 -3
-3 4 -7 0 -15 -9 -18 -11 -4 -15 -2 -11 8 4 10 1 13 -9 9 -7 -3 -14 -10 -14
-17 0 -6 -8 3 -19 19 -10 17 -14 33 -9 36 5 3 2 9 -7 12 -9 4 -13 3 -10 -3 3
-6 -1 -10 -10 -10 -9 0 -13 5 -10 10 11 17 -7 11 -21 -7 -13 -17 -14 -17 -7 1
4 13 3 17 -5 12 -8 -5 -10 -1 -5 11 6 16 4 16 -16 -2 -12 -11 -21 -15 -20 -10
2 6 -2 20 -9 33 -11 19 -16 21 -35 10 -19 -9 -20 -9 -10 3 9 11 8 19 -4 34
-11 14 -14 15 -10 3 4 -10 -1 -18 -14 -21 -15 -4 -17 -2 -9 13 9 16 6 18 -25
16 -31 -3 -34 -1 -23 12 11 13 10 15 -6 9 -14 -6 -17 -4 -12 10 5 15 3 14 -10
-2 -11 -14 -15 -15 -14 -5 1 8 2 22 1 30 -1 13 -2 13 -11 0 -8 -12 -10 -12
-10 5 -1 18 -2 18 -14 -4 -8 -15 -16 -20 -20 -12 -4 6 -3 11 2 11 5 0 9 6 9
14 0 8 -3 15 -6 14 -24 -2 -76 33 -65 45 3 3 -3 4 -13 4 -10 -1 -17 4 -15 11
1 8 -2 11 -8 7 -5 -3 -10 -1 -10 6 0 7 -3 9 -7 5 -5 -5 8 -22 27 -38 25 -22
28 -26 10 -17 -14 7 -29 12 -33 11 -5 -1 -6 2 -2 8 3 5 1 10 -4 10 -6 0 -11
10 -11 22 0 12 -3 18 -7 14 -5 -4 -8 -12 -8 -17 0 -5 -4 -8 -10 -6 -5 1 -9 8
-7 14 2 8 -3 10 -14 6 -14 -5 -15 -3 -4 17 7 12 7 20 2 16 -6 -3 -12 -3 -15 1
-2 5 -3 3 -1 -4 5 -19 -7 -23 -30 -7 -13 8 -26 11 -30 7 -4 -5 -7 -3 -6 2 5
22 -1 35 -15 35 -8 0 -15 8 -16 18 0 14 -2 14 -9 -3 -7 -17 -9 -17 -9 -2 -1 9
-5 17 -11 17 -5 0 -7 -8 -3 -17 7 -19 5 -18 -17 11 -9 12 -10 17 -3 12 9 -5
11 -2 7 8 -3 9 -15 16 -26 16 -12 0 -27 8 -35 18 -14 16 -14 16 -9 0 3 -10 2
-18 -2 -18 -12 0 -52 39 -52 50 0 5 -10 14 -21 21 -15 8 -19 8 -15 0 4 -6 2
-11 -3 -11 -10 0 -15 14 -12 33 0 4 -4 7 -10 7 -6 0 -8 -8 -5 -17 5 -15 4 -15
-9 1 -8 11 -15 23 -15 26 0 3 -9 6 -20 7 -11 1 -18 -2 -16 -6 3 -4 -1 -8 -9
-8 -11 0 -12 5 -3 21 10 19 10 20 -6 7 -14 -12 -16 -12 -10 4 5 13 4 16 -4 11
-7 -4 -12 -2 -12 3 0 6 -3 10 -7 10 -21 -3 -32 3 -36 19 -4 16 -5 16 -6 0 0
-10 -6 -18 -12 -18 -6 0 -8 9 -4 23 6 18 5 20 -6 10 -17 -17 -37 -17 -21 -1
16 16 15 31 0 25 -7 -2 -22 0 -33 5 -19 9 -19 8 -2 -5 15 -13 15 -15 2 -20 -8
-4 -14 -1 -12 6 1 7 -3 11 -8 10 -6 -1 -11 7 -11 18 0 13 5 18 16 14 11 -5 12
-3 3 6 -12 12 -37 3 -28 -11 3 -5 1 -12 -5 -15 -6 -4 -10 -3 -9 2 4 24 -4 33
-27 33 -17 0 -23 -4 -18 -12 4 -7 3 -9 -1 -5 -9 7 -13 23 -17 59 -1 10 -6 14
-13 9 -20 -16 -44 -20 -51 -9 -5 7 -2 8 6 3 9 -5 11 -4 6 3 -9 15 -13 15 -21
2z m395 -214 c0 -3 -4 -8 -10 -11 -5 -3 -10 -1 -10 4 0 6 5 11 10 11 6 0 10
-2 10 -4z m80 -46 c0 -5 -2 -10 -4 -10 -3 0 -8 5 -11 10 -3 6 -1 10 4 10 6 0
11 -4 11 -10z m116 -79 c0 -11 -4 -17 -8 -15 -4 3 -8 12 -8 20 0 8 4 14 8 14
4 0 8 -9 8 -19z m-1129 -7 c0 -7 -6 -10 -14 -7 -7 3 -13 8 -13 12 0 4 6 8 13
8 8 0 14 -6 14 -13z m-33 -12 c3 -5 -1 -9 -9 -9 -8 0 -12 4 -9 9 3 4 7 8 9 8
2 0 6 -4 9 -8z m1237 -45 c-10 -9 -11 -8 -5 6 3 10 9 15 12 12 3 -3 0 -11 -7
-18z m-1707 -228 c-3 -5 -10 -7 -15 -3 -5 3 -7 10 -3 15 3 5 10 7 15 3 5 -3 7
-10 3 -15z m-84 -63 c0 -2 -7 -7 -16 -10 -8 -3 -12 -2 -9 4 6 10 25 14 25 6z
m2405 -37 c11 -16 1 -19 -13 -3 -7 8 -8 14 -3 14 5 0 13 -5 16 -11z m-2598
-61 c2 -17 0 -19 -7 -8 -5 8 -6 18 -4 22 8 12 10 10 11 -14z m-47 -20 c0 -4
-7 -8 -15 -8 -9 0 -12 -6 -9 -17 5 -14 4 -15 -4 -4 -6 8 -8 19 -6 26 5 13 34
16 34 3z m2809 -2 c9 -10 7 -17 -6 -27 -16 -12 -17 -12 -6 2 10 12 10 18 1 27
-7 7 -9 12 -6 12 3 0 11 -6 17 -14z m278 -153 c-4 -3 -2 -12 4 -20 7 -8 8 -13
1 -13 -12 0 -23 26 -15 34 4 3 9 6 11 6 3 0 2 -3 -1 -7z m498 -292 c3 -5 2
-12 -3 -15 -5 -3 -9 1 -9 9 0 17 3 19 12 6z m495 -301 c0 -5 -2 -10 -4 -10 -3
0 -8 5 -11 10 -3 6 -1 10 4 10 6 0 11 -4 11 -10z m-5651 -164 c8 -10 9 -16 1
-21 -6 -4 -9 -1 -8 7 2 7 -3 12 -10 10 -8 -1 -11 2 -7 8 8 13 10 13 24 -4z
m6133 -138 c-11 -11 -12 -9 -6 6 6 15 4 17 -7 11 -8 -4 -11 -5 -7 0 4 4 3 15
-4 24 -7 9 -1 6 12 -6 20 -18 22 -25 12 -35z m-6542 -94 c0 -8 -19 -13 -24 -6
-3 5 1 9 9 9 8 0 15 -2 15 -3z m7064 -179 c-4 -8 -8 -15 -10 -15 -2 0 -4 7 -4
15 0 8 4 15 10 15 5 0 7 -7 4 -15z m-7374 -19 c-7 -7 -13 -7 -20 0 -6 6 -3 10
10 10 13 0 16 -4 10 -10z m-75 -36 c3 -6 -1 -7 -9 -4 -18 7 -21 14 -7 14 6 0
13 -4 16 -10z m-55 -16 c0 -8 -19 -13 -24 -6 -3 5 1 9 9 9 8 0 15 -2 15 -3z
m-20 -28 c0 -3 -4 -8 -10 -11 -5 -3 -10 -1 -10 4 0 6 5 11 10 11 6 0 10 -2 10
-4z m-94 -45 c0 -11 -4 -17 -8 -15 -4 3 -8 0 -8 -7 0 -7 -3 -10 -6 -7 -5 5 12
48 19 48 2 0 3 -9 3 -19z m7949 -41 c3 -5 1 -10 -4 -10 -6 0 -11 5 -11 10 0 6
2 10 4 10 3 0 8 -4 11 -10z m-8128 -65 c-24 -23 -37 -24 -19 -2 7 8 10 16 7
18 -2 3 4 5 15 5 17 0 17 -2 -3 -21z m-60 -30 c0 -8 -4 -12 -9 -9 -5 3 -6 10
-3 15 9 13 12 11 12 -6z m-63 -40 c-7 -16 -24 -21 -24 -6 0 8 7 13 27 20 1 1
0 -6 -3 -14z m8717 -202 c13 -16 12 -17 -3 -4 -10 7 -18 15 -18 17 0 8 8 3 21
-13z m-8884 -5205 c-3 -8 -6 -5 -6 6 -1 11 2 17 5 13 3 -3 4 -12 1 -19z m83
-32 c0 -3 -4 -8 -10 -11 -5 -3 -10 -1 -10 4 0 6 5 11 10 11 6 0 10 -2 10 -4z
m34 -28 c-5 -8 -2 -9 11 -4 15 5 16 4 5 -9 -10 -12 -15 -13 -21 -3 -7 12 -3
28 7 28 3 0 2 -5 -2 -12z m8546 8 c0 -3 -4 -8 -10 -11 -5 -3 -10 -1 -10 4 0 6
5 11 10 11 6 0 10 -2 10 -4z m-8445 -58 c5 4 5 1 1 -6 -6 -9 -11 -10 -20 -3
-7 6 -17 7 -21 3 -5 -4 -5 -1 -1 6 6 9 11 10 20 3 7 -6 17 -7 21 -3z m8279
-54 c3 -8 2 -12 -4 -9 -6 3 -10 10 -10 16 0 14 7 11 14 -7z m-94 -59 c-7 -9
-15 -13 -19 -10 -3 3 1 10 9 15 21 14 24 12 10 -5z m-7743 -167 c-3 -8 -6 -5
-6 6 -1 11 2 17 5 13 3 -3 4 -12 1 -19z m61 -19 c-3 -8 -7 -3 -11 10 -4 17 -3
21 5 13 5 -5 8 -16 6 -23z m42 -29 c0 -5 -5 -10 -11 -10 -5 0 -7 5 -4 10 3 6
8 10 11 10 2 0 4 -4 4 -10z m137 -56 c-3 -4 -2 -15 4 -25 7 -14 6 -17 -5 -13
-8 3 -13 13 -11 22 5 23 4 22 12 22 3 0 3 -3 0 -6z m170 -111 c-9 -2 -14 -9
-11 -15 4 -7 2 -8 -5 -4 -15 10 -4 26 17 25 15 -1 15 -2 -1 -6z m53 -29 c0 -8
-19 -13 -24 -6 -3 5 1 9 9 9 8 0 15 -2 15 -3z m6400 -104 c0 -5 -2 -10 -4 -10
-3 0 -8 5 -11 10 -3 6 -1 10 4 10 6 0 11 -4 11 -10z m-6000 -142 c0 -6 -6 -5
-15 2 -8 7 -15 14 -15 16 0 2 7 1 15 -2 8 -4 15 -11 15 -16z m60 -18 c0 19 10
6 15 -19 l4 -22 -29 23 c-16 13 -29 27 -29 32 -1 5 8 1 19 -9 14 -13 20 -14
20 -5z m5464 -106 c3 -8 2 -12 -4 -9 -6 3 -10 10 -10 16 0 14 7 11 14 -7z
m-227 -138 c2 -2 0 -7 -6 -11 -6 -3 -11 -1 -11 5 0 6 -4 9 -9 5 -5 -3 -12 -1
-16 4 -5 9 33 7 42 -3z m-72 -35 c3 -5 2 -12 -3 -15 -5 -3 -9 1 -9 9 0 17 3
19 12 6z m-25 -15 c0 -3 -4 -8 -10 -11 -5 -3 -10 -1 -10 4 0 6 5 11 10 11 6 0
10 -2 10 -4z m-97 -61 c-10 -7 -22 -13 -27 -13 -5 0 -13 -6 -18 -14 -8 -10 -9
-10 -5 2 2 8 9 16 15 16 25 3 27 5 12 15 -13 9 -12 10 3 5 9 -3 17 -1 17 5 0
6 5 7 11 4 7 -5 4 -12 -8 -20z m-229 -132 c4 -10 4 -14 0 -10 -4 4 -13 2 -20
-4 -8 -7 -14 -6 -20 2 -4 8 -3 9 5 5 6 -4 14 0 17 8 8 20 10 20 18 -1z m-3701
-158 c8 -8 18 -11 22 -7 5 4 5 1 1 -6 -7 -11 -11 -10 -25 2 -10 9 -21 13 -24
9 -4 -3 -7 -1 -7 5 0 16 16 15 33 -3z m47 -29 c0 -3 -4 -8 -10 -11 -5 -3 -10
-1 -10 4 0 6 5 11 10 11 6 0 10 -2 10 -4z m3015 -184 c-10 -11 -35 -10 -42 0
-3 6 -1 8 5 4 6 -3 13 -2 17 4 4 6 11 8 16 4 6 -3 8 -9 4 -12z m-2618 -44 c8
20 19 14 19 -12 0 -23 -1 -23 -23 -9 -13 9 -23 20 -23 27 0 6 5 4 11 -4 8 -11
12 -12 16 -2z m2453 -53 c-12 -13 -28 -21 -35 -19 -11 4 -10 9 3 23 11 11 20
13 24 7 8 -11 12 -1 9 17 -1 5 3 5 10 2 7 -5 3 -15 -11 -30z m-2353 -15 c-2
-23 -10 -17 -12 10 -1 10 2 17 6 14 4 -2 7 -13 6 -24z m2006 -167 c3 -5 -6 -9
-20 -10 -19 -1 -22 1 -12 8 17 11 26 11 32 2z m-1573 -83 c0 -5 -2 -10 -4 -10
-3 0 -8 5 -11 10 -3 6 -1 10 4 10 6 0 11 -4 11 -10z m1290 -80 c0 -5 -5 -10
-11 -10 -5 0 -7 5 -4 10 3 6 8 10 11 10 2 0 4 -4 4 -10z m-760 -200 c0 -5 -2
-10 -4 -10 -3 0 -8 5 -11 10 -3 6 -1 10 4 10 6 0 11 -4 11 -10z"/>
<path d="M4896 10238 c3 -5 10 -6 15 -3 13 9 11 12 -6 12 -8 0 -12 -4 -9 -9z"/>
<path d="M5725 10150 c3 -5 8 -10 11 -10 2 0 4 5 4 10 0 6 -5 10 -11 10 -5 0
-7 -4 -4 -10z"/>
<path d="M5921 10037 c2 -1 12 -9 22 -16 15 -12 17 -12 11 3 -3 9 -13 16 -22
16 -8 0 -13 -1 -11 -3z"/>
<path d="M6140 9926 c7 -7 13 -7 20 0 6 6 3 10 -10 10 -13 0 -16 -4 -10 -10z"/>
<path d="M4315 9920 c-3 -5 -1 -10 4 -10 6 0 11 5 11 10 0 6 -2 10 -4 10 -3 0
-8 -4 -11 -10z"/>
<path d="M6393 9780 c-1 -11 2 -22 6 -24 4 -3 7 4 6 14 -2 27 -10 33 -12 10z"/>
<path d="M3979 9728 c14 -19 32 -15 30 5 0 8 -2 8 -6 -1 -4 -10 -8 -10 -21 0
-15 12 -16 11 -3 -4z"/>
<path d="M3718 9575 c5 -27 16 -32 28 -13 4 7 3 8 -4 4 -7 -4 -12 -1 -12 8 0
8 -4 17 -9 20 -4 3 -6 -6 -3 -19z"/>
<path d="M6764 9538 c-3 -5 -2 -8 3 -7 4 1 10 0 13 -1 20 -8 39 -6 43 4 5 13
-51 17 -59 4z"/>
<path d="M6870 9489 c0 -5 5 -7 10 -4 6 3 10 8 10 11 0 2 -4 4 -10 4 -5 0 -10
-5 -10 -11z"/>
<path d="M7134 9336 c24 -19 36 -20 36 -4 0 6 -3 8 -6 5 -4 -3 -16 -2 -28 4
-20 10 -20 10 -2 -5z"/>
<path d="M7686 9032 c-3 -6 1 -15 8 -21 8 -7 17 -8 20 -3 3 6 -1 15 -8 21 -8
7 -17 8 -20 3z"/>
<path d="M2676 8965 c4 -8 11 -15 16 -15 6 0 5 6 -2 15 -7 8 -14 15 -16 15 -2
0 -1 -7 2 -15z"/>
<path d="M2633 8935 c0 -8 4 -12 9 -9 5 3 6 10 3 15 -9 13 -12 11 -12 -6z"/>
<path d="M2585 8930 c-3 -5 -1 -10 4 -10 6 0 11 5 11 10 0 6 -2 10 -4 10 -3 0
-8 -4 -11 -10z"/>
<path d="M7881 8924 c0 -11 3 -14 6 -6 3 7 2 16 -1 19 -3 4 -6 -2 -5 -13z"/>
<path d="M8287 8682 c-4 -5 4 -17 17 -26 22 -14 25 -14 37 2 11 15 11 15 -1 4
-12 -10 -17 -9 -31 9 -9 13 -19 18 -22 11z"/>
<path d="M8470 8571 c0 -5 10 -13 21 -16 17 -6 19 -9 8 -16 -10 -6 -7 -8 9 -6
12 0 22 2 22 3 0 2 -13 12 -30 24 -16 12 -30 17 -30 11z"/>
<path d="M1724 8412 c3 -5 0 -12 -6 -15 -7 -2 -10 -7 -7 -11 3 -4 12 0 18 8 9
11 9 16 0 22 -7 4 -9 3 -5 -4z"/>
<path d="M8761 8384 c13 -15 46 -14 46 1 0 6 -13 11 -28 11 -22 0 -26 -3 -18
-12z"/>
<path d="M1483 8285 c0 -8 4 -12 9 -9 5 3 6 10 3 15 -9 13 -12 11 -12 -6z"/>
<path d="M8981 8277 c2 -1 16 -12 30 -25 20 -17 29 -20 34 -11 5 7 4 10 -1 7
-9 -6 -36 17 -29 24 2 2 -5 5 -17 5 -11 1 -19 1 -17 0z"/>
<path d="M1230 8131 c0 -7 -4 -10 -8 -7 -5 3 -9 -2 -9 -10 0 -13 2 -13 16 0 8
9 12 19 8 22 -4 4 -7 2 -7 -5z"/>
<path d="M9366 8043 c-6 -14 -5 -15 5 -6 7 7 10 15 7 18 -3 3 -9 -2 -12 -12z"/>
<path d="M9470 8011 c0 -6 4 -13 10 -16 6 -3 7 1 4 9 -7 18 -14 21 -14 7z"/>
<path d="M9740 7650 c0 -5 5 -10 11 -10 5 0 7 5 4 10 -3 6 -8 10 -11 10 -2 0
-4 -4 -4 -10z"/>
<path d="M9740 7010 c0 -5 5 -10 11 -10 5 0 7 5 4 10 -3 6 -8 10 -11 10 -2 0
-4 -4 -4 -10z"/>
<path d="M9740 6370 c0 -5 5 -10 11 -10 5 0 7 5 4 10 -3 6 -8 10 -11 10 -2 0
-4 -4 -4 -10z"/>
<path d="M721 5823 c7 -12 15 -20 18 -17 3 2 -3 12 -13 22 -17 16 -18 16 -5
-5z"/>
<path d="M9740 5730 c0 -5 5 -10 11 -10 5 0 7 5 4 10 -3 6 -8 10 -11 10 -2 0
-4 -4 -4 -10z"/>
<path d="M725 5341 c-3 -5 -2 -12 3 -15 5 -3 9 1 9 9 0 17 -3 19 -12 6z"/>
<path d="M9740 5090 c0 -5 5 -10 11 -10 5 0 7 5 4 10 -3 6 -8 10 -11 10 -2 0
-4 -4 -4 -10z"/>
<path d="M725 4861 c-3 -5 -2 -12 3 -15 5 -3 9 1 9 9 0 17 -3 19 -12 6z"/>
<path d="M9740 4450 c0 -5 5 -10 11 -10 5 0 7 5 4 10 -3 6 -8 10 -11 10 -2 0
-4 -4 -4 -10z"/>
<path d="M9740 3810 c0 -5 5 -10 11 -10 5 0 7 5 4 10 -3 6 -8 10 -11 10 -2 0
-4 -4 -4 -10z"/>
<path d="M721 3743 c7 -12 15 -20 18 -17 3 2 -3 12 -13 22 -17 16 -18 16 -5
-5z"/>
<path d="M9740 3170 c0 -5 5 -10 11 -10 5 0 7 5 4 10 -3 6 -8 10 -11 10 -2 0
-4 -4 -4 -10z"/>
<path d="M9390 2425 c-11 -13 -10 -14 4 -9 9 3 16 10 16 15 0 13 -6 11 -20 -6z"/>
<path d="M1060 2420 c-9 -6 -10 -10 -3 -10 6 0 15 5 18 10 8 12 4 12 -15 0z"/>
<path d="M8770 2049 c0 -5 5 -7 10 -4 6 3 10 8 10 11 0 2 -4 4 -10 4 -5 0 -10
-5 -10 -11z"/>
<path d="M1810 1994 c0 -8 5 -12 10 -9 6 4 8 11 5 16 -9 14 -15 11 -15 -7z"/>
<path d="M1987 1903 c-10 -9 -9 -23 1 -23 5 0 9 7 9 15 0 17 -1 18 -10 8z"/>
<path d="M2150 1816 c0 -11 30 -39 36 -34 2 3 -5 13 -16 23 -11 10 -20 15 -20
11z"/>
<path d="M8150 1688 c0 -4 4 -8 9 -8 6 0 12 4 15 8 3 5 -1 9 -9 9 -8 0 -15 -4
-15 -9z"/>
<path d="M8110 1666 c7 -7 13 -7 20 0 6 6 3 10 -10 10 -13 0 -16 -4 -10 -10z"/>
<path d="M2466 1618 c3 -5 10 -6 15 -3 13 9 11 12 -6 12 -8 0 -12 -4 -9 -9z"/>
<path d="M8005 1621 c-3 -5 -2 -12 3 -15 5 -3 9 1 9 9 0 17 -3 19 -12 6z"/>
<path d="M2500 1589 c-12 -8 -11 -9 5 -7 13 2 19 -2 17 -11 -3 -12 0 -12 12
-1 9 7 16 15 16 18 0 3 -3 2 -7 -1 -3 -4 -11 -3 -17 3 -7 5 -17 5 -26 -1z"/>
<path d="M2690 1481 c0 -5 7 -12 16 -15 14 -5 15 -4 4 9 -14 17 -20 19 -20 6z"/>
<path d="M7510 1329 c0 -5 5 -7 10 -4 6 3 10 8 10 11 0 2 -4 4 -10 4 -5 0 -10
-5 -10 -11z"/>
<path d="M3008 1309 c6 -9 8 -20 4 -25 -4 -5 -3 -6 2 -1 5 4 20 0 32 -8 14 -9
25 -11 29 -5 3 6 5 10 3 11 -2 0 -11 2 -21 4 -10 2 -28 12 -40 22 -15 12 -18
13 -9 2z"/>
<path d="M7390 1271 c0 -6 4 -13 10 -16 6 -3 7 1 4 9 -7 18 -14 21 -14 7z"/>
<path d="M7356 1237 c3 -10 9 -15 12 -12 3 3 0 11 -7 18 -10 9 -11 8 -5 -6z"/>
<path d="M7158 1128 c-9 -5 -6 -7 9 -5 12 2 25 6 28 8 8 9 -23 6 -37 -3z"/>
<path d="M6894 979 c-3 -6 -3 -13 0 -16 3 -4 6 -1 6 5 0 6 7 9 15 6 8 -4 15
-4 15 -1 0 11 -30 16 -36 6z"/>
<path d="M3620 929 c0 -5 5 -7 10 -4 6 3 10 8 10 11 0 2 -4 4 -10 4 -5 0 -10
-5 -10 -11z"/>
<path d="M3916 782 c-3 -5 1 -9 9 -9 8 0 12 4 9 9 -3 4 -7 8 -9 8 -2 0 -6 -4
-9 -8z"/>
<path d="M6575 770 c3 -5 8 -10 11 -10 2 0 4 5 4 10 0 6 -5 10 -11 10 -5 0 -7
-4 -4 -10z"/>
<path d="M4160 635 c-7 -8 -9 -15 -6 -15 4 0 14 7 22 15 9 8 11 15 6 15 -5 0
-15 -7 -22 -15z"/>
<path d="M6288 634 c-34 -18 -36 -27 -4 -14 13 5 26 7 28 4 3 -2 5 3 5 11 0 8
-1 15 -1 15 -1 -1 -13 -8 -28 -16z"/>
<path d="M4451 474 c0 -11 3 -14 6 -6 3 7 2 16 -1 19 -3 4 -6 -2 -5 -13z"/>
<path d="M5855 379 c-10 -15 3 -25 16 -12 7 7 7 13 1 17 -6 3 -14 1 -17 -5z"/>
<path d="M4704 318 c-2 -4 7 -5 21 -2 20 3 23 1 19 -13 -5 -15 -4 -15 4 -3 6
8 9 17 6 21 -5 9 -44 7 -50 -3z"/>
<path d="M5506 182 c-2 -4 -1 -14 4 -22 7 -11 9 -9 7 8 -1 24 -3 26 -11 14z"/>
<path d="M5530 169 c0 -5 5 -7 10 -4 6 3 10 8 10 11 0 2 -4 4 -10 4 -5 0 -10
-5 -10 -11z"/>
<path d="M5092 86 c7 -8 15 -12 17 -11 5 6 -10 25 -20 25 -5 0 -4 -6 3 -14z"/>
<path d="M5351 86 c-20 -11 -21 -14 -6 -19 24 -10 32 -8 15 3 -13 9 -13 10 0
11 8 1 19 1 23 0 5 -1 6 3 2 9 -7 12 -5 12 -34 -4z"/>
<path d="M5215 21 c-3 -5 -2 -12 3 -15 5 -3 9 1 9 9 0 17 -3 19 -12 6z"/>
</g>
</svg>
